SplineFontDB: 3.2
FontName: Estedad-Thin
FullName: Estedad Thin
FamilyName: Estedad Thin
Weight: Thin
Copyright: Copyright (c) 2020 by Amin Abedi (@aminabedi68)-www.fontamin.com,\nwith Reserved Font Name Estedad.\n\nThis Font Software is licensed under the SIL Open Font License, Version 1.1.
Version: 4.0
ItalicAngle: 0
UnderlinePosition: -680
UnderlineWidth: 125
Ascent: 1638
Descent: 410
InvalidEm: 0
UFOAscent: 1638
UFODescent: -410
LayerCount: 2
Layer: 0 0 "Back" 1
Layer: 1 0 "public.default" 0 "glyphs"
StyleMap: 0x0000
FSType: 0
OS2Version: 0
OS2_WeightWidthSlopeOnly: 0
OS2_UseTypoMetrics: 0
CreationTime: 1585137016
ModificationTime: 1585169823
PfmFamily: 17
TTFWeight: 100
TTFWidth: 5
LineGap: 0
VLineGap: 0
OS2TypoAscent: 2311
OS2TypoAOffset: 0
OS2TypoDescent: -1260
OS2TypoDOffset: 0
OS2TypoLinegap: 0
OS2WinAscent: 2311
OS2WinAOffset: 0
OS2WinDescent: 1260
OS2WinDOffset: 0
HheadAscent: 2311
HheadAOffset: 0
HheadDescent: -1260
HheadDOffset: 0
OS2CapHeight: 1470
OS2XHeight: 1063
OS2Vendor: 'amin'
Lookup: 2 0 0 "Multiple substitution 0" { "Multiple substitution 0 subtable"  } []
Lookup: 2 0 0 "Multiple substitution 1" { "Multiple substitution 1 subtable"  } []
Lookup: 1 9 0 "'fina' Terminal Forms in Arabic lookup 2" { "'fina' Terminal Forms in Arabic lookup 2 subtable"  } ['fina' ('arab' <'FAR ' 'KUR ' 'dflt' > ) ]
Lookup: 1 9 0 "'medi' Medial Forms in Arabic lookup 3" { "'medi' Medial Forms in Arabic lookup 3 subtable"  } ['medi' ('arab' <'FAR ' 'KUR ' 'dflt' > ) ]
Lookup: 1 9 0 "'init' Initial Forms in Arabic lookup 4" { "'init' Initial Forms in Arabic lookup 4 subtable"  } ['init' ('arab' <'FAR ' 'KUR ' 'dflt' > ) ]
Lookup: 4 9 1 "'rlig' Required Ligatures in Arabic lookup 5" { "'rlig' Required Ligatures in Arabic lookup 5 subtable"  } ['rlig' ('arab' <'FAR ' 'KUR ' 'dflt' > ) ]
Lookup: 4 0 1 "'ccmp' Glyph Composition/Decomposition lookup 6" { "'ccmp' Glyph Composition/Decomposition lookup 6 subtable"  } ['rlig' ('arab' <'FAR ' 'KUR ' 'dflt' > ) ]

StartChar: A
Encoding: 65 65 0
GlifName: A_
Width: 1217
VWidth: 0
GlyphClass: 2
Flags: W
LayerCount: 2
Fore
SplineSet
278 334 m 257
 143 0 l 257
 32 0 l 257
 539 1246 l 257
 680 1246 l 257
 1186 0 l 257
 1074 0 l 257
 939 334 l 257
 278 334 l 257
315 422 m 257
 902 422 l 257
 609 1145 l 257
 315 422 l 257
EndSplineSet
EndChar

StartChar: AE
Encoding: 198 198 1
GlifName: A_E_
Width: 1573
VWidth: 0
GlyphClass: 2
Flags: W
LayerCount: 2
Fore
SplineSet
732 1155 m 257
 613 1155 l 257
 315 422 l 257
 732 422 l 257
 732 1155 l 257
539 1246 m 257
 1500 1246 l 257
 1500 1155 l 257
 837 1155 l 257
 837 668 l 257
 1447 668 l 257
 1447 578 l 257
 837 578 l 257
 837 90 l 257
 1500 90 l 257
 1500 0 l 257
 732 0 l 257
 732 334 l 257
 278 334 l 257
 143 0 l 257
 32 0 l 257
 539 1246 l 257
EndSplineSet
EndChar

StartChar: B
Encoding: 66 66 8
GlifName: B_
Width: 1185
VWidth: 0
GlyphClass: 2
Flags: W
LayerCount: 2
Fore
SplineSet
158 1246 m 257
 650 1246 l 258
 848 1246 1022 1117 1022 913 c 256
 1022 789 953 689 865 635 c 257
 993 579 1081 458 1081 315 c 256
 1081 118 913 0 709 0 c 258
 158 0 l 257
 158 1246 l 257
263 578 m 257
 263 90 l 257
 709 90 l 258
 860 90 976 165 976 315 c 256
 976 470 851 578 709 578 c 258
 263 578 l 257
650 668 m 258
 797 668 917 762 917 913 c 256
 917 1064 797 1155 650 1155 c 258
 263 1155 l 257
 263 668 l 257
 650 668 l 258
EndSplineSet
EndChar

StartChar: C
Encoding: 67 67 9
GlifName: C_
Width: 1267
VWidth: 0
GlyphClass: 2
Flags: W
LayerCount: 2
Fore
SplineSet
1068 272 m 257
 1153 218 l 257
 1065 77 909 -21 686 -21 c 256
 309 -21 116 246 116 623 c 256
 116 1000 309 1267 686 1267 c 256
 909 1267 1065 1168 1153 1027 c 257
 1068 974 l 257
 991 1095 879 1176 686 1176 c 256
 366 1176 221 944 221 623 c 256
 221 301 366 69 686 69 c 256
 879 69 991 151 1068 272 c 257
EndSplineSet
EndChar

StartChar: D
Encoding: 68 68 11
GlifName: D_
Width: 1296
VWidth: 0
GlyphClass: 2
Flags: W
LayerCount: 2
Fore
SplineSet
1159 623 m 256
 1159 251 967 0 589 0 c 258
 200 0 l 257
 200 1246 l 257
 589 1246 l 258
 967 1246 1159 995 1159 623 c 256
1054 623 m 256
 1054 943 909 1155 589 1155 c 258
 305 1155 l 257
 305 90 l 257
 589 90 l 258
 909 90 1054 303 1054 623 c 256
EndSplineSet
EndChar

StartChar: E
Encoding: 69 69 12
GlifName: E_
Width: 1040
VWidth: 0
GlyphClass: 2
Flags: W
LayerCount: 2
Fore
SplineSet
967 90 m 257
 967 0 l 257
 200 0 l 257
 200 1246 l 257
 967 1246 l 257
 967 1155 l 257
 305 1155 l 257
 305 668 l 257
 915 668 l 257
 915 578 l 257
 305 578 l 257
 305 90 l 257
 967 90 l 257
EndSplineSet
EndChar

StartChar: F
Encoding: 70 70 18
GlifName: F_
Width: 1030
VWidth: 0
GlyphClass: 2
Flags: W
LayerCount: 2
Fore
SplineSet
305 0 m 257
 200 0 l 257
 200 1246 l 257
 967 1246 l 257
 967 1155 l 257
 305 1155 l 257
 305 622 l 257
 915 622 l 257
 915 534 l 257
 305 534 l 257
 305 0 l 257
EndSplineSet
EndChar

StartChar: G
Encoding: 71 71 19
GlifName: G_
Width: 1304
VWidth: 0
GlyphClass: 2
Flags: W
LayerCount: 2
Fore
SplineSet
676 622 m 257
 1199 622 l 257
 1199 458 l 258
 1199 145 1003 -21 675 -21 c 256
 298 -21 105 246 105 623 c 256
 105 1000 298 1267 675 1267 c 256
 898 1267 1055 1168 1143 1027 c 257
 1058 974 l 257
 981 1095 868 1176 675 1176 c 256
 355 1176 210 944 210 623 c 256
 210 301 355 69 675 69 c 256
 947 69 1094 193 1094 458 c 258
 1094 534 l 257
 676 534 l 257
 676 622 l 257
EndSplineSet
EndChar

StartChar: GAFbar
Encoding: 1114112 -1 20
GlifName: G_A_F_bar
Width: 1049
VWidth: 0
GlyphClass: 2
Flags: W
LayerCount: 2
Fore
SplineSet
852 1974 m 257
 869 1897 l 257
 598 1841 321 1732 89 1584 c 257
 47 1651 l 257
 288 1805 573 1916 852 1974 c 257
EndSplineSet
EndChar

StartChar: H
Encoding: 72 72 21
GlifName: H_
Width: 1370
VWidth: 0
GlyphClass: 2
Flags: W
LayerCount: 2
Fore
SplineSet
1066 1246 m 257
 1171 1246 l 257
 1171 0 l 257
 1066 0 l 257
 1066 578 l 257
 305 578 l 257
 305 0 l 257
 200 0 l 257
 200 1246 l 257
 305 1246 l 257
 305 668 l 257
 1066 668 l 257
 1066 1246 l 257
EndSplineSet
EndChar

StartChar: I
Encoding: 73 73 24
GlifName: I_
Width: 588
VWidth: 0
GlyphClass: 2
Flags: W
LayerCount: 2
Fore
SplineSet
347 0 m 257
 242 0 l 257
 242 1246 l 257
 347 1246 l 257
 347 0 l 257
EndSplineSet
EndChar

StartChar: J
Encoding: 74 74 29
GlifName: J_
Width: 883
VWidth: 0
GlyphClass: 2
Flags: W
LayerCount: 2
Fore
SplineSet
84 27 m 257
 128 109 l 257
 174 84 229 69 298 69 c 256
 482 69 579 161 579 358 c 258
 579 1246 l 257
 684 1246 l 257
 684 358 l 258
 684 111 527 -21 298 -21 c 256
 221 -21 147 -7 84 27 c 257
EndSplineSet
EndChar

StartChar: K
Encoding: 75 75 30
GlifName: K_
Width: 1134
VWidth: 0
GlyphClass: 2
Flags: W
LayerCount: 2
Fore
SplineSet
952 1246 m 257
 1082 1246 l 257
 542 623 l 257
 1082 0 l 257
 952 0 l 257
 477 547 l 257
 305 349 l 257
 305 0 l 257
 200 0 l 257
 200 1246 l 257
 305 1246 l 257
 305 499 l 257
 952 1246 l 257
EndSplineSet
EndChar

StartChar: L
Encoding: 76 76 31
GlifName: L_
Width: 977
VWidth: 0
GlyphClass: 2
Flags: W
LayerCount: 2
Fore
SplineSet
925 90 m 257
 925 0 l 257
 200 0 l 257
 200 1246 l 257
 305 1246 l 257
 305 90 l 257
 925 90 l 257
EndSplineSet
EndChar

StartChar: M
Encoding: 77 77 32
GlifName: M_
Width: 1815
VWidth: 0
GlyphClass: 2
Flags: W
LayerCount: 2
Fore
SplineSet
305 0 m 257
 200 0 l 257
 200 1246 l 257
 356 1246 l 257
 883 81 l 257
 1461 1246 l 257
 1616 1246 l 257
 1616 0 l 257
 1511 0 l 257
 1511 1128 l 257
 952 0 l 257
 812 0 l 257
 305 1122 l 257
 305 0 l 257
EndSplineSet
EndChar

StartChar: N
Encoding: 78 78 33
GlifName: N_
Width: 1417
VWidth: 0
GlyphClass: 2
Flags: W
LayerCount: 2
Fore
SplineSet
1113 1246 m 257
 1218 1246 l 257
 1218 0 l 257
 1089 1 l 257
 305 1117 l 257
 305 0 l 257
 200 0 l 257
 200 1246 l 257
 329 1246 l 257
 1113 128 l 257
 1113 1246 l 257
EndSplineSet
EndChar

StartChar: O
Encoding: 79 79 35
GlifName: O_
Width: 1455
VWidth: 0
GlyphClass: 2
Flags: W
LayerCount: 2
Fore
SplineSet
728 1267 m 256
 1105 1267 1298 1000 1298 623 c 256
 1298 246 1105 -21 728 -21 c 256
 351 -21 158 246 158 623 c 256
 158 1000 351 1267 728 1267 c 256
728 1176 m 256
 407 1176 263 944 263 623 c 256
 263 301 407 69 728 69 c 256
 1049 69 1193 302 1193 623 c 256
 1193 945 1049 1176 728 1176 c 256
EndSplineSet
EndChar

StartChar: OE
Encoding: 338 338 36
GlifName: O_E_
Width: 1681
VWidth: 0
GlyphClass: 2
Flags: W
LayerCount: 2
Fore
SplineSet
840 1155 m 257
 728 1155 l 258
 408 1155 263 944 263 623 c 256
 263 301 408 90 728 90 c 258
 840 90 l 257
 840 1155 l 257
945 1155 m 257
 945 668 l 257
 1555 668 l 257
 1555 578 l 257
 945 578 l 257
 945 90 l 257
 1608 90 l 257
 1608 0 l 257
 728 0 l 258
 351 0 158 246 158 623 c 256
 158 1000 351 1246 728 1246 c 258
 1608 1246 l 257
 1608 1155 l 257
 945 1155 l 257
EndSplineSet
EndChar

StartChar: P
Encoding: 80 80 43
GlifName: P_
Width: 1126
VWidth: 0
GlyphClass: 2
Flags: W
LayerCount: 2
Fore
SplineSet
263 0 m 257
 158 0 l 257
 158 1246 l 257
 650 1246 l 258
 848 1246 1022 1117 1022 913 c 256
 1022 709 848 578 650 578 c 258
 263 578 l 257
 263 0 l 257
263 1155 m 257
 263 668 l 257
 650 668 l 258
 797 668 917 762 917 913 c 256
 917 1064 797 1155 650 1155 c 258
 263 1155 l 257
EndSplineSet
EndChar

StartChar: R
Encoding: 82 82 45
GlifName: R_
Width: 1126
VWidth: 0
GlyphClass: 2
Flags: W
LayerCount: 2
Fore
SplineSet
748 649 m 257
 1095 0 l 257
 967 0 l 257
 635 649 l 257
 748 649 l 257
263 0 m 257
 158 0 l 257
 158 1246 l 257
 650 1246 l 258
 848 1246 1022 1117 1022 913 c 256
 1022 709 848 578 650 578 c 258
 263 578 l 257
 263 0 l 257
263 1155 m 257
 263 668 l 257
 650 668 l 258
 797 668 917 762 917 913 c 256
 917 1064 797 1155 650 1155 c 258
 263 1155 l 257
EndSplineSet
EndChar

StartChar: S
Encoding: 83 83 46
GlifName: S_
Width: 1104
VWidth: 0
GlyphClass: 2
Flags: W
LayerCount: 2
Fore
SplineSet
105 353 m 257
 210 353 l 257
 210 165 378 69 565 69 c 256
 741 69 895 148 895 328 c 256
 895 483 744 531 544 587 c 256
 361 637 132 703 132 920 c 256
 132 1140 315 1267 540 1267 c 256
 774 1267 973 1122 973 894 c 257
 868 894 l 257
 868 1073 720 1178 540 1178 c 256
 368 1178 237 1092 237 920 c 256
 237 774 383 726 578 671 c 256
 765 620 1000 555 1000 328 c 256
 1000 93 792 -21 565 -21 c 256
 323 -21 105 110 105 353 c 257
EndSplineSet
EndChar

StartChar: T
Encoding: 84 84 47
GlifName: T_
Width: 1260
VWidth: 0
GlyphClass: 2
Flags: W
LayerCount: 2
Fore
SplineSet
683 0 m 257
 578 0 l 257
 578 1155 l 257
 105 1155 l 257
 105 1246 l 257
 1155 1246 l 257
 1155 1155 l 257
 683 1155 l 257
 683 0 l 257
EndSplineSet
EndChar

StartChar: Thorn
Encoding: 222 222 54
GlifName: T_horn
Width: 1038
VWidth: 0
GlyphClass: 2
Flags: W
LayerCount: 2
Fore
SplineSet
305 353 m 257
 480 353 l 258
 657 353 797 405 797 608 c 256
 797 811 657 863 480 863 c 258
 305 863 l 257
 305 353 l 257
305 0 m 257
 200 0 l 257
 200 1246 l 257
 305 1246 l 257
 305 954 l 257
 480 954 l 258
 704 954 902 863 902 608 c 256
 902 353 704 263 480 263 c 258
 305 263 l 257
 305 0 l 257
EndSplineSet
EndChar

StartChar: U
Encoding: 85 85 55
GlifName: U_
Width: 1293
VWidth: 0
GlyphClass: 2
Flags: W
LayerCount: 2
Fore
SplineSet
1031 1246 m 257
 1136 1246 l 257
 1136 436 l 258
 1136 161 914 -21 647 -21 c 256
 380 -21 158 161 158 436 c 258
 158 1246 l 257
 263 1246 l 257
 263 436 l 258
 263 213 433 69 647 69 c 256
 861 69 1031 213 1031 436 c 258
 1031 1246 l 257
EndSplineSet
EndChar

StartChar: V
Encoding: 86 86 60
GlifName: V_
Width: 1217
VWidth: 0
GlyphClass: 2
Flags: W
LayerCount: 2
Fore
SplineSet
1074 1246 m 257
 1186 1246 l 257
 678 0 l 257
 538 0 l 257
 32 1246 l 257
 143 1246 l 257
 608 101 l 257
 1074 1246 l 257
EndSplineSet
EndChar

StartChar: W
Encoding: 87 87 61
GlifName: W_
Width: 1910
VWidth: 0
GlyphClass: 2
Flags: W
LayerCount: 2
Fore
SplineSet
1738 1246 m 257
 1847 1246 l 257
 1445 0 l 257
 1294 0 l 257
 955 1134 l 257
 615 0 l 257
 464 0 l 257
 63 1246 l 257
 172 1246 l 257
 539 107 l 257
 880 1246 l 257
 1030 1246 l 257
 1371 107 l 257
 1738 1246 l 257
EndSplineSet
EndChar

StartChar: X
Encoding: 88 88 62
GlifName: X_
Width: 1226
VWidth: 0
GlyphClass: 2
Flags: W
LayerCount: 2
Fore
SplineSet
1174 0 m 257
 1048 0 l 257
 613 543 l 257
 179 0 l 257
 53 0 l 257
 550 623 l 257
 53 1246 l 257
 179 1246 l 257
 613 703 l 257
 1048 1246 l 257
 1174 1246 l 257
 676 623 l 257
 1174 0 l 257
EndSplineSet
EndChar

StartChar: Y
Encoding: 89 89 63
GlifName: Y_
Width: 1125
VWidth: 0
GlyphClass: 2
Flags: W
LayerCount: 2
Fore
SplineSet
974 1246 m 257
 1094 1246 l 257
 615 547 l 257
 615 0 l 257
 510 0 l 257
 510 547 l 257
 32 1246 l 257
 152 1246 l 257
 563 648 l 257
 974 1246 l 257
EndSplineSet
EndChar

StartChar: Z
Encoding: 90 90 65
GlifName: Z_
Width: 1209
VWidth: 0
GlyphClass: 2
Flags: W
LayerCount: 2
Fore
SplineSet
95 1155 m 257
 95 1244 l 257
 1115 1244 l 257
 1115 1126 l 257
 201 90 l 257
 1115 90 l 257
 1115 0 l 257
 95 0 l 257
 95 119 l 257
 1009 1155 l 257
 95 1155 l 257
EndSplineSet
EndChar

StartChar: a
Encoding: 97 97 66
GlifName: a
Width: 943
VWidth: 0
GlyphClass: 2
Flags: W
LayerCount: 2
Fore
SplineSet
786 598 m 258
 786 0 l 257
 681 0 l 257
 681 598 l 258
 681 742 603 834 450 834 c 256
 330 834 243 773 163 655 c 257
 88 702 l 257
 184 843 290 922 462 922 c 256
 643 922 786 801 786 598 c 258
EndSplineSet
Refer: 312 57355 N 1 0 0 1 -40 0 2
EndChar

StartChar: acute
Encoding: 180 180 69
GlifName: acute
Width: 544
VWidth: 0
GlyphClass: 2
Flags: W
LayerCount: 2
Fore
SplineSet
350 1286 m 257
 402 1252 l 257
 194 920 l 257
 142 954 l 257
 350 1286 l 257
EndSplineSet
EndChar

StartChar: ae
Encoding: 230 230 71
GlifName: ae
Width: 1570
VWidth: 0
GlyphClass: 2
Flags: W
LayerCount: 2
Fore
SplineSet
786 443 m 257
 789 232 898 69 1108 69 c 256
 1247 69 1329 138 1383 230 c 257
 1471 180 l 257
 1405 66 1279 -21 1108 -21 c 256
 842 -21 681 182 681 451 c 256
 681 720 842 922 1108 922 c 256
 1356 922 1491 730 1491 487 c 258
 1491 443 l 257
 786 443 l 257
792 531 m 257
 1384 531 l 257
 1369 694 1288 832 1108 832 c 256
 922 832 817 698 792 531 c 257
786 598 m 258
 786 242 l 257
 681 242 l 257
 681 598 l 258
 681 742 603 834 450 834 c 256
 330 834 243 773 163 655 c 257
 88 702 l 257
 184 843 290 922 462 922 c 256
 643 922 786 801 786 598 c 258
EndSplineSet
Refer: 312 57355 N 1 0 0 1 -40 0 2
EndChar

StartChar: ampersand
Encoding: 38 38 73
GlifName: ampersand
Width: 1132
VWidth: 0
GlyphClass: 2
Flags: W
LayerCount: 2
Fore
SplineSet
370 638 m 257
 264 762 l 258
 208 827 181 905 181 980 c 256
 181 1154 312 1267 489 1267 c 256
 660 1267 804 1164 804 997 c 256
 804 815 639 690 518 617 c 257
 820 263 l 257
 947 416 l 257
 1027 355 l 257
 885 186 l 257
 1027 21 l 257
 952 -43 l 257
 817 114 l 257
 729 33 610 -21 456 -21 c 256
 262 -21 105 93 105 281 c 256
 105 456 253 566 370 638 c 257
432 565 m 257
 334 503 210 420 210 281 c 256
 210 140 315 68 456 68 c 256
 595 68 679 116 753 188 c 257
 432 565 l 257
456 689 m 257
 556 750 699 854 699 997 c 256
 699 1108 604 1177 489 1177 c 256
 366 1177 286 1101 286 980 c 256
 286 924 307 864 349 814 c 258
 456 689 l 257
EndSplineSet
EndChar

StartChar: asciicircum
Encoding: 94 94 75
GlifName: asciicircum
Width: 739
VWidth: 0
GlyphClass: 2
Flags: W
LayerCount: 2
Fore
SplineSet
639 932 m 257
 588 892 l 257
 370 1168 l 257
 151 892 l 257
 101 932 l 257
 333 1225 l 257
 406 1225 l 257
 639 932 l 257
EndSplineSet
EndChar

StartChar: asciitilde
Encoding: 126 126 76
GlifName: asciitilde
Width: 911
VWidth: 0
GlyphClass: 2
Flags: W
LayerCount: 2
Fore
SplineSet
99 947 m 257
 145 1056 230 1107 302 1107 c 256
 366 1107 414 1087 475 1041 c 256
 530 1000 561 986 610 986 c 256
 649 986 715 1020 752 1107 c 257
 811 1082 l 257
 768 982 685 923 610 923 c 256
 546 923 496 945 437 990 c 256
 380 1032 351 1044 302 1044 c 256
 261 1044 198 1016 158 923 c 257
 99 947 l 257
EndSplineSet
EndChar

StartChar: asterisk
Encoding: 42 42 77
GlifName: asterisk
Width: 1189
VWidth: 0
GlyphClass: 2
Flags: W
LayerCount: 2
Fore
SplineSet
197 928 m 257
 223 1004 l 257
 555 895 l 257
 555 1246 l 257
 634 1246 l 257
 634 895 l 257
 967 1004 l 257
 992 928 l 257
 659 819 l 257
 865 536 l 257
 802 489 l 257
 594 773 l 257
 388 489 l 257
 325 536 l 257
 530 819 l 257
 197 928 l 257
EndSplineSet
EndChar

StartChar: at
Encoding: 64 64 78
GlifName: at
Width: 2269
VWidth: 0
GlyphClass: 2
Flags: W
LayerCount: 2
Fore
SplineSet
1088 976 m 256
 883 976 674 823 674 452 c 256
 674 153 845 67 1001 67 c 256
 1146 67 1318 174 1345 480 c 258
 1381 885 l 257
 1311 938 1238 976 1088 976 c 256
1088 1064 m 256
 1294 1064 1393 997 1490 921 c 257
 1435 300 l 258
 1434 289 1434 282 1434 270 c 256
 1434 140 1502 67 1622 67 c 256
 1812 67 1913 276 1913 534 c 256
 1913 969 1567 1377 1104 1377 c 256
 662 1377 263 1026 263 534 c 256
 263 0 599 -314 1135 -314 c 256
 1217 -314 1297 -302 1373 -280 c 257
 1406 -364 l 257
 1320 -388 1230 -402 1135 -402 c 256
 528 -402 158 -37 158 534 c 256
 158 1063 588 1467 1093 1467 c 256
 1640 1467 2018 1007 2018 534 c 256
 2018 269 1891 -21 1622 -21 c 256
 1476 -21 1382 56 1345 162 c 257
 1259 39 1133 -21 1001 -21 c 256
 784 -21 569 117 569 452 c 256
 569 848 805 1064 1088 1064 c 256
EndSplineSet
EndChar

StartChar: b
Encoding: 98 98 80
GlifName: b
Width: 1117
VWidth: 0
GlyphClass: 2
Flags: W
LayerCount: 2
Fore
SplineSet
263 0 m 257
 158 0 l 257
 158 1351 l 257
 263 1351 l 257
 263 0 l 257
EndSplineSet
Refer: 316 57359 N 1 0 0 1 -21 0 2
EndChar

StartChar: backslash
Encoding: 92 92 81
GlifName: backslash
Width: 1081
VWidth: 0
GlyphClass: 2
Flags: W
LayerCount: 2
Fore
SplineSet
924 0 m 257
 830 -48 l 257
 158 1263 l 257
 252 1311 l 257
 924 0 l 257
EndSplineSet
EndChar

StartChar: bar
Encoding: 124 124 82
GlifName: bar
Width: 462
VWidth: 0
GlyphClass: 2
Flags: W
LayerCount: 2
Fore
SplineSet
179 1246 m 257
 284 1246 l 257
 284 -431 l 257
 179 -431 l 257
 179 1246 l 257
EndSplineSet
EndChar

StartChar: braceleft
Encoding: 123 123 83
GlifName: braceleft
Width: 688
VWidth: 0
GlyphClass: 2
Flags: W
LayerCount: 2
Fore
SplineSet
259 623 m 257
 346 569 404 480 404 371 c 258
 404 86 l 258
 404 27 440 0 496 0 c 258
 636 0 l 257
 636 -90 l 257
 496 -90 l 258
 382 -90 299 -15 299 86 c 258
 299 371 l 258
 299 478 228 551 141 576 c 258
 105 586 l 257
 105 660 l 257
 141 670 l 258
 228 695 299 768 299 875 c 258
 299 1158 l 258
 299 1259 382 1333 496 1333 c 258
 636 1333 l 257
 636 1245 l 257
 496 1245 l 258
 440 1245 404 1217 404 1158 c 258
 404 875 l 258
 404 765 345 676 259 623 c 257
EndSplineSet
EndChar

StartChar: braceright
Encoding: 125 125 84
GlifName: braceright
Width: 688
VWidth: 0
GlyphClass: 2
Flags: W
LayerCount: 2
Fore
SplineSet
482 623 m 257
 396 676 337 765 337 875 c 258
 337 1159 l 258
 337 1218 302 1246 246 1246 c 258
 105 1246 l 257
 105 1334 l 257
 246 1334 l 258
 360 1334 442 1260 442 1159 c 258
 442 875 l 258
 442 768 514 695 601 670 c 258
 636 660 l 257
 636 586 l 257
 601 576 l 258
 514 551 442 478 442 371 c 258
 442 86 l 258
 442 -15 360 -90 246 -90 c 258
 105 -90 l 257
 105 0 l 257
 246 0 l 258
 302 0 337 27 337 86 c 258
 337 371 l 258
 337 480 395 569 482 623 c 257
EndSplineSet
EndChar

StartChar: bracketleft
Encoding: 91 91 85
GlifName: bracketleft
Width: 674
VWidth: 0
GlyphClass: 2
Flags: W
LayerCount: 2
Fore
SplineSet
569 0 m 257
 569 -90 l 257
 179 -90 l 257
 179 1334 l 257
 569 1334 l 257
 569 1246 l 257
 284 1246 l 257
 284 0 l 257
 569 0 l 257
EndSplineSet
EndChar

StartChar: bracketright
Encoding: 93 93 86
GlifName: bracketright
Width: 674
VWidth: 0
GlyphClass: 2
Flags: W
LayerCount: 2
Fore
SplineSet
105 1246 m 257
 105 1334 l 257
 496 1334 l 257
 496 -90 l 257
 105 -90 l 257
 105 0 l 257
 391 0 l 257
 391 1246 l 257
 105 1246 l 257
EndSplineSet
EndChar

StartChar: brokenbar
Encoding: 166 166 87
GlifName: brokenbar
Width: 462
VWidth: 0
GlyphClass: 2
Flags: W
LayerCount: 2
Fore
SplineSet
284 785 m 257
 179 785 l 257
 179 1246 l 257
 284 1246 l 257
 284 785 l 257
284 0 m 257
 179 0 l 257
 179 411 l 257
 284 411 l 257
 284 0 l 257
EndSplineSet
EndChar

StartChar: c
Encoding: 99 99 88
GlifName: c
Width: 1000
VWidth: 0
GlyphClass: 2
Flags: W
LayerCount: 2
Fore
SplineSet
532 69 m 256
 671 69 754 138 808 230 c 257
 896 180 l 257
 830 66 703 -21 532 -21 c 256
 266 -21 105 182 105 451 c 256
 105 720 266 922 532 922 c 256
 703 922 830 836 896 722 c 257
 808 671 l 257
 754 763 671 832 532 832 c 256
 321 832 210 666 210 451 c 256
 210 236 321 69 532 69 c 256
EndSplineSet
EndChar

StartChar: cedilla
Encoding: 184 184 90
GlifName: cedilla
Width: 759
VWidth: 0
GlyphClass: 2
Flags: W
LayerCount: 2
Fore
SplineSet
227 -456 m 257
 403 -456 l 258
 501 -456 522 -414 522 -380 c 256
 522 -356 510 -321 480 -285 c 258
 375 -162 l 257
 436 -97 l 257
 541 -220 l 258
 582 -268 606 -324 606 -380 c 256
 606 -485 522 -550 403 -550 c 258
 227 -550 l 257
 227 -456 l 257
EndSplineSet
EndChar

StartChar: cent
Encoding: 162 162 91
GlifName: cent
Width: 1000
VWidth: 0
GlyphClass: 2
Flags: W
LayerCount: 2
Fore
SplineSet
584 845 m 257
 479 845 l 257
 479 1246 l 257
 584 1246 l 257
 584 845 l 257
584 -431 m 257
 479 -431 l 257
 479 -3 l 257
 584 -3 l 257
 584 -431 l 257
EndSplineSet
Refer: 88 99 N 1 0 0 1 0 0 2
EndChar

StartChar: comma
Encoding: 44 44 93
GlifName: comma
Width: 527
VWidth: 0
GlyphClass: 2
Flags: W
LayerCount: 2
Fore
SplineSet
153 125 m 256
 153 187 195 233 257 233 c 256
 335 233 374 179 374 68 c 256
 374 -79 310 -184 238 -254 c 257
 187 -207 l 257
 247 -147 301 -69 306 28 c 257
 226 -4 153 48 153 125 c 256
EndSplineSet
EndChar

StartChar: copyright
Encoding: 169 169 94
GlifName: copyright
Width: 1795
VWidth: 0
GlyphClass: 2
Flags: W
LayerCount: 2
Fore
SplineSet
1199 992 m 257
 1134 932 l 257
 1075 1004 985 1043 898 1043 c 256
 729 1043 593 904 593 729 c 256
 593 555 729 417 898 417 c 256
 985 417 1075 455 1134 527 c 257
 1199 466 l 257
 1121 373 1023 327 898 327 c 256
 655 327 488 519 488 729 c 256
 488 938 655 1131 898 1131 c 256
 1023 1131 1121 1085 1199 992 c 257
231 728 m 256
 231 350 537 54 898 54 c 256
 1259 54 1565 350 1565 728 c 256
 1565 1106 1259 1400 898 1400 c 256
 537 1400 231 1106 231 728 c 256
126 728 m 256
 126 1144 465 1490 898 1490 c 256
 1331 1490 1670 1144 1670 728 c 256
 1670 312 1331 -35 898 -35 c 256
 465 -35 126 312 126 728 c 256
EndSplineSet
EndChar

StartChar: currency
Encoding: 164 164 95
GlifName: currency
Width: 1179
VWidth: 0
GlyphClass: 2
Flags: W
LayerCount: 2
Fore
SplineSet
854 734 m 257
 780 797 l 257
 1022 1073 l 257
 1095 1010 l 257
 854 734 l 257
399 797 m 257
 326 734 l 257
 84 1010 l 257
 158 1073 l 257
 399 797 l 257
326 170 m 257
 399 107 l 257
 158 -169 l 257
 84 -106 l 257
 326 170 l 257
780 107 m 257
 854 170 l 257
 1095 -106 l 257
 1022 -169 l 257
 780 107 l 257
EndSplineSet
Refer: 142 111 N 1 0 0 1 82 0 2
EndChar

StartChar: d
Encoding: 100 100 96
GlifName: d
Width: 1117
VWidth: 0
GlyphClass: 2
Flags: W
LayerCount: 2
Fore
SplineSet
960 0 m 257
 855 0 l 257
 855 1351 l 257
 960 1351 l 257
 960 0 l 257
EndSplineSet
Refer: 316 57359 N -1 0 0 -1 1138 901 2
EndChar

StartChar: degree
Encoding: 176 176 97
GlifName: degree
Width: 678
VWidth: 0
GlyphClass: 2
Flags: W
LayerCount: 2
Fore
SplineSet
509 1211 m 256
 509 1307 435 1381 339 1381 c 256
 243 1381 169 1307 169 1211 c 256
 169 1115 243 1041 339 1041 c 256
 435 1041 509 1115 509 1211 c 256
572 1211 m 256
 572 1082 468 978 339 978 c 256
 210 978 106 1082 106 1211 c 256
 106 1340 210 1444 339 1444 c 256
 468 1444 572 1340 572 1211 c 256
EndSplineSet
EndChar

StartChar: dotlessi
Encoding: 305 305 101
GlifName: dotlessi
Width: 420
VWidth: 0
GlyphClass: 2
Flags: W
LayerCount: 2
Fore
SplineSet
158 901 m 257
 263 901 l 257
 263 0 l 257
 158 0 l 257
 158 901 l 257
EndSplineSet
EndChar

StartChar: e
Encoding: 101 101 102
GlifName: e
Width: 968
VWidth: 0
GlyphClass: 2
Flags: W
LayerCount: 2
Fore
SplineSet
184 443 m 257
 187 232 296 69 506 69 c 256
 645 69 727 138 781 230 c 257
 870 180 l 257
 804 66 677 -21 506 -21 c 256
 240 -21 79 182 79 451 c 256
 79 720 240 922 506 922 c 256
 754 922 890 730 890 487 c 258
 890 443 l 257
 184 443 l 257
190 531 m 257
 782 531 l 257
 767 694 686 832 506 832 c 256
 320 832 215 698 190 531 c 257
EndSplineSet
EndChar

StartChar: eight
Encoding: 56 56 107
GlifName: eight
Width: 1030
VWidth: 0
GlyphClass: 2
Flags: W
LayerCount: 2
Fore
SplineSet
712 665 m 257
 837 603 925 482 925 323 c 256
 925 101 743 -21 516 -21 c 256
 289 -21 105 101 105 323 c 256
 105 484 191 605 316 666 c 257
 219 719 165 815 165 947 c 256
 165 1140 309 1267 516 1267 c 256
 723 1267 865 1140 865 947 c 256
 865 815 810 718 712 665 c 257
210 323 m 256
 210 154 336 69 516 69 c 256
 695 69 820 154 820 323 c 256
 820 502 679 620 515 620 c 256
 345 620 210 505 210 323 c 256
760 947 m 256
 760 1090 666 1176 516 1176 c 256
 365 1176 270 1090 270 947 c 256
 270 791 356 710 515 710 c 256
 674 710 760 791 760 947 c 256
EndSplineSet
EndChar

StartChar: eth
Encoding: 240 240 109
GlifName: eth
Width: 1022
VWidth: 0
GlyphClass: 2
Flags: W
LayerCount: 2
Fore
SplineSet
511 832 m 256
 300 832 189 666 189 451 c 256
 189 236 300 69 511 69 c 256
 722 69 834 236 834 451 c 256
 834 666 722 832 511 832 c 256
511 922 m 256
 615 922 748 877 819 746 c 257
 756 916 615 1058 523 1137 c 257
 342 989 l 257
 285 1057 l 257
 450 1191 l 257
 395 1230 348 1259 288 1283 c 257
 319 1356 l 257
 379 1333 440 1298 522 1241 c 257
 683 1378 l 257
 737 1310 l 257
 585 1191 l 257
 819 981 939 722 939 451 c 256
 939 182 777 -21 511 -21 c 256
 245 -21 84 182 84 451 c 256
 84 720 245 922 511 922 c 256
EndSplineSet
EndChar

StartChar: exclam
Encoding: 33 33 110
GlifName: exclam
Width: 640
VWidth: 0
GlyphClass: 2
Flags: W
LayerCount: 2
Fore
SplineSet
373 411 m 257
 268 411 l 257
 268 1246 l 257
 373 1246 l 257
 373 411 l 257
EndSplineSet
Refer: 160 46 N 1 0 0 1 32 0 2
EndChar

StartChar: f
Encoding: 102 102 112
GlifName: f
Width: 686
VWidth: 0
GlyphClass: 2
Flags: W
LayerCount: 2
Fore
SplineSet
686 1351 m 257
 686 1262 l 257
 489 1262 l 258
 423 1262 357 1206 357 1123 c 258
 357 0 l 257
 252 0 l 257
 252 1123 l 258
 252 1244 351 1351 489 1351 c 258
 686 1351 l 257
EndSplineSet
Refer: 311 57354 N 1 0 0 1 -32 339 2
EndChar

StartChar: five
Encoding: 53 53 114
GlifName: five
Width: 1016
VWidth: 0
GlyphClass: 2
Flags: W
LayerCount: 2
Fore
SplineSet
105 341 m 257
 210 341 l 257
 210 171 314 69 465 69 c 256
 681 69 788 182 788 415 c 256
 788 633 699 757 492 757 c 256
 379 757 289 712 197 629 c 257
 122 667 l 257
 173 1246 l 257
 912 1246 l 257
 912 1155 l 257
 270 1155 l 257
 236 760 l 257
 314 819 389 845 492 845 c 256
 756 845 893 683 893 415 c 256
 893 134 737 -21 465 -21 c 256
 263 -21 105 119 105 341 c 257
EndSplineSet
EndChar

StartChar: four
Encoding: 52 52 115
GlifName: four
Width: 1117
VWidth: 0
GlyphClass: 2
Flags: W
LayerCount: 2
Fore
SplineSet
735 344 m 257
 735 1111 l 257
 189 344 l 257
 735 344 l 257
1065 344 m 257
 1065 256 l 257
 840 256 l 257
 840 0 l 257
 735 0 l 257
 735 256 l 257
 84 256 l 257
 84 370 l 257
 708 1246 l 257
 840 1246 l 257
 840 344 l 257
 1065 344 l 257
EndSplineSet
EndChar

StartChar: g
Encoding: 103 103 116
GlifName: g
Width: 1117
VWidth: 0
GlyphClass: 2
Flags: W
LayerCount: 2
Fore
SplineSet
855 901 m 257
 960 901 l 257
 960 61 l 258
 960 -292 731 -441 465 -441 c 256
 345 -441 215 -410 105 -359 c 257
 143 -279 l 257
 246 -326 365 -355 471 -355 c 256
 679 -355 855 -244 855 61 c 258
 855 901 l 257
EndSplineSet
Refer: 316 57359 N -1 0 0 -1 1138 901 2
EndChar

StartChar: germandbls
Encoding: 223 223 117
GlifName: germandbls
Width: 1185
VWidth: 0
GlyphClass: 2
Flags: W
LayerCount: 2
Fore
SplineSet
564 0 m 257
 564 90 l 257
 876 90 965 112 965 244 c 256
 965 341 904 397 826 452 c 256
 749 507 655 577 655 705 c 256
 655 806 697 859 740 910 c 256
 782 960 824 1010 824 1106 c 256
 824 1276 732 1392 553 1392 c 256
 368 1392 284 1277 284 1106 c 258
 284 0 l 257
 179 0 l 257
 179 1106 l 258
 179 1302 293 1480 553 1480 c 256
 807 1480 929 1303 929 1106 c 256
 929 996 884 942 840 889 c 256
 799 841 760 793 760 705 c 256
 760 619 816 576 893 521 c 256
 975 462 1070 381 1070 244 c 256
 1070 26 855 0 564 0 c 257
EndSplineSet
EndChar

StartChar: grave
Encoding: 96 96 118
GlifName: grave
Width: 550
VWidth: 0
GlyphClass: 2
Flags: W
LayerCount: 2
Fore
SplineSet
405 954 m 257
 353 920 l 257
 145 1252 l 257
 197 1286 l 257
 405 954 l 257
EndSplineSet
EndChar

StartChar: greater
Encoding: 62 62 119
GlifName: greater
Width: 813
VWidth: 0
GlyphClass: 2
Flags: W
LayerCount: 2
Fore
SplineSet
185 166 m 257
 130 223 l 257
 541 611 l 257
 130 1001 l 257
 185 1058 l 257
 654 611 l 257
 185 166 l 257
EndSplineSet
EndChar

StartChar: h
Encoding: 104 104 122
GlifName: h
Width: 1121
VWidth: 0
GlyphClass: 2
Flags: W
LayerCount: 2
Fore
SplineSet
263 0 m 257
 158 0 l 257
 158 1351 l 257
 263 1351 l 257
 263 0 l 257
EndSplineSet
Refer: 314 57357 N 1 0 0 1 0 0 2
EndChar

StartChar: hyphen
Encoding: 45 45 123
GlifName: hyphen
Width: 1042
VWidth: 0
GlyphClass: 2
Flags: W
LayerCount: 2
Fore
SplineSet
917 586 m 257
 917 498 l 257
 126 498 l 257
 126 586 l 257
 917 586 l 257
EndSplineSet
EndChar

StartChar: k
Encoding: 107 107 130
GlifName: k
Width: 937
VWidth: 0
GlyphClass: 2
Flags: W
LayerCount: 2
Fore
SplineSet
750 901 m 257
 885 901 l 257
 468 452 l 257
 885 0 l 257
 751 0 l 257
 400 380 l 257
 263 225 l 257
 263 0 l 257
 158 0 l 257
 158 1351 l 257
 263 1351 l 257
 263 367 l 257
 750 901 l 257
EndSplineSet
EndChar

StartChar: l
Encoding: 108 108 131
GlifName: l
Width: 420
VWidth: 0
GlyphClass: 2
Flags: W
LayerCount: 2
Fore
SplineSet
263 0 m 257
 158 0 l 257
 158 1351 l 257
 263 1351 l 257
 263 0 l 257
EndSplineSet
EndChar

StartChar: less
Encoding: 60 60 132
GlifName: less
Width: 813
VWidth: 0
GlyphClass: 2
Flags: W
LayerCount: 2
Fore
SplineSet
600 1058 m 257
 654 1001 l 257
 244 612 l 257
 654 223 l 257
 600 166 l 257
 130 612 l 257
 600 1058 l 257
EndSplineSet
EndChar

StartChar: logicalnot
Encoding: 172 172 133
GlifName: logicalnot
Width: 1126
VWidth: 0
GlyphClass: 2
Flags: W
LayerCount: 2
Fore
SplineSet
105 465 m 257
 105 553 l 257
 948 553 l 257
 948 224 l 257
 843 224 l 257
 843 465 l 257
 105 465 l 257
EndSplineSet
EndChar

StartChar: m
Encoding: 109 109 134
GlifName: m
Width: 1571
VWidth: 0
GlyphClass: 2
Flags: W
LayerCount: 2
Fore
SplineSet
137 901 m 257
 242 901 l 257
 242 0 l 257
 137 0 l 257
 137 901 l 257
EndSplineSet
Refer: 313 57356 N 1 0 0 1 -618 0 2
Refer: 313 57356 N 1 0 0 1 -21 0 2
EndChar

StartChar: mu
Encoding: 181 181 136
GlifName: mu
Width: 1121
VWidth: 0
GlyphClass: 2
Flags: W
LayerCount: 2
Fore
SplineSet
158 901 m 257
 263 901 l 257
 263 -431 l 257
 158 -431 l 257
 158 901 l 257
EndSplineSet
Refer: 189 117 N 1 0 0 1 0 0 2
EndChar

StartChar: multiply
Encoding: 215 215 137
GlifName: multiply
Width: 918
VWidth: 0
GlyphClass: 2
Flags: W
LayerCount: 2
Fore
SplineSet
731 887 m 257
 793 824 l 257
 522 555 l 257
 793 284 l 257
 730 222 l 257
 460 492 l 257
 189 221 l 257
 126 283 l 257
 398 555 l 257
 126 826 l 257
 188 889 l 257
 460 617 l 257
 731 887 l 257
EndSplineSet
EndChar

StartChar: n
Encoding: 110 110 138
GlifName: n
Width: 1121
VWidth: 0
GlyphClass: 2
Flags: W
LayerCount: 2
Fore
SplineSet
263 0 m 257
 158 0 l 257
 158 901 l 257
 263 901 l 257
 263 0 l 257
EndSplineSet
Refer: 314 57357 N 1 0 0 1 0 0 2
EndChar

StartChar: nine
Encoding: 57 57 139
GlifName: nine
Width: 1067
VWidth: 0
GlyphClass: 2
Flags: W
LayerCount: 2
Fore
SplineSet
518 538 m 256
 663 538 788 632 856 731 c 257
 845 983 777 1176 519 1176 c 256
 319 1176 210 1051 210 853 c 256
 210 664 339 538 518 538 c 256
518 447 m 256
 287 447 105 611 105 853 c 256
 105 1102 263 1267 519 1267 c 256
 859 1267 962 1008 962 669 c 256
 962 298 842 -21 490 -21 c 256
 330 -21 220 55 143 144 c 257
 217 208 l 257
 281 132 358 69 490 69 c 256
 750 69 845 324 857 615 c 257
 792 535 648 447 518 447 c 256
EndSplineSet
EndChar

StartChar: numbersign
Encoding: 35 35 141
GlifName: numbersign
Width: 1593
VWidth: 0
GlyphClass: 2
Flags: W
LayerCount: 2
Fore
SplineSet
1017 859 m 257
 660 859 l 257
 553 472 l 257
 910 472 l 257
 1017 859 l 257
423 0 m 257
 305 0 l 257
 411 383 l 257
 158 383 l 257
 158 472 l 257
 435 472 l 257
 542 859 l 257
 267 859 l 257
 267 947 l 257
 566 947 l 257
 667 1311 l 257
 785 1311 l 257
 685 947 l 257
 1041 947 l 257
 1142 1311 l 257
 1259 1311 l 257
 1159 947 l 257
 1436 947 l 257
 1436 859 l 257
 1134 859 l 257
 1028 472 l 257
 1326 472 l 257
 1326 383 l 257
 1004 383 l 257
 898 0 l 257
 779 0 l 257
 885 383 l 257
 529 383 l 257
 423 0 l 257
EndSplineSet
EndChar

StartChar: o
Encoding: 111 111 142
GlifName: o
Width: 1022
VWidth: 0
GlyphClass: 2
Flags: W
LayerCount: 2
Fore
SplineSet
511 832 m 256
 300 832 189 666 189 451 c 256
 189 236 300 69 511 69 c 256
 722 69 834 236 834 451 c 256
 834 666 722 832 511 832 c 256
511 922 m 256
 777 922 939 720 939 451 c 256
 939 182 777 -21 511 -21 c 256
 245 -21 84 182 84 451 c 256
 84 720 245 922 511 922 c 256
EndSplineSet
EndChar

StartChar: one
Encoding: 49 49 148
GlifName: one
Width: 662
VWidth: 0
GlyphClass: 2
Flags: W
LayerCount: 2
Fore
SplineSet
400 942 m 257
 332 913 245 897 149 897 c 258
 105 897 l 257
 105 987 l 257
 149 987 l 258
 248 987 355 1002 400 1051 c 257
 400 1246 l 257
 505 1246 l 257
 505 0 l 257
 400 0 l 257
 400 942 l 257
EndSplineSet
EndChar

StartChar: onehalf
Encoding: 189 189 149
GlifName: onehalf
Width: 2201
VWidth: 0
GlyphClass: 2
Flags: W
LayerCount: 2
Fore
SplineSet
636 -83 m 257
 548 -35 l 257
 1526 1401 l 257
 1614 1353 l 257
 636 -83 l 257
2054 -395 m 257
 2054 -483 l 257
 1333 -483 l 257
 1333 -383 l 257
 1846 102 l 258
 1908 161 1949 214 1949 334 c 256
 1949 517 1819 592 1693 592 c 256
 1568 592 1439 517 1439 334 c 257
 1334 334 l 257
 1334 561 1509 683 1693 683 c 256
 1876 683 2054 561 2054 334 c 256
 2054 193 1996 110 1924 43 c 258
 1462 -395 l 257
 2054 -395 l 257
158 1216 m 257
 158 1307 l 257
 191 1307 l 258
 347 1307 403 1328 442 1386 c 257
 442 1565 l 257
 547 1565 l 257
 547 452 l 257
 442 452 l 257
 442 1274 l 257
 380 1230 295 1216 191 1216 c 258
 158 1216 l 257
EndSplineSet
EndChar

StartChar: onequarter
Encoding: 188 188 150
GlifName: onequarter
Width: 2063
VWidth: 0
GlyphClass: 2
Flags: W
LayerCount: 2
Fore
SplineSet
1906 -128 m 257
 1906 -216 l 257
 1753 -216 l 257
 1753 -481 l 257
 1648 -481 l 257
 1648 -216 l 257
 1108 -216 l 257
 1108 -123 l 257
 1630 674 l 257
 1753 674 l 257
 1753 -128 l 257
 1906 -128 l 257
1648 -128 m 257
 1648 519 l 257
 1225 -128 l 257
 1648 -128 l 257
640 -83 m 257
 551 -35 l 257
 1528 1401 l 257
 1616 1353 l 257
 640 -83 l 257
158 1216 m 257
 158 1307 l 257
 191 1307 l 258
 347 1307 403 1328 442 1386 c 257
 442 1565 l 257
 547 1565 l 257
 547 452 l 257
 442 452 l 257
 442 1274 l 257
 380 1230 295 1216 191 1216 c 258
 158 1216 l 257
EndSplineSet
EndChar

StartChar: ordfeminine
Encoding: 170 170 151
GlifName: ordfeminine
Width: 785
VWidth: 0
GlyphClass: 2
Flags: W
LayerCount: 2
Fore
SplineSet
639 1307 m 258
 639 889 l 257
 565 889 l 257
 565 1003 l 257
 519 922 442 874 343 874 c 256
 237 874 147 924 147 1031 c 256
 147 1183 313 1263 480 1263 c 256
 508 1263 537 1261 565 1257 c 257
 565 1307 l 258
 565 1408 510 1471 403 1471 c 256
 319 1471 259 1429 203 1346 c 257
 150 1379 l 257
 217 1478 291 1533 412 1533 c 256
 538 1533 639 1449 639 1307 c 258
565 1109 m 257
 565 1198 l 257
 538 1203 509 1207 483 1207 c 256
 349 1207 223 1139 223 1035 c 256
 223 963 272 937 352 937 c 256
 455 937 535 1005 565 1109 c 257
EndSplineSet
EndChar

StartChar: p
Encoding: 112 112 155
GlifName: p
Width: 1117
VWidth: 0
GlyphClass: 2
Flags: W
LayerCount: 2
Fore
SplineSet
158 891 m 257
 263 891 l 257
 263 -431 l 257
 158 -431 l 257
 158 891 l 257
EndSplineSet
Refer: 316 57359 N 1 0 0 1 -21 0 2
EndChar

StartChar: paragraph
Encoding: 182 182 156
GlifName: paragraph
Width: 1298
VWidth: 0
GlyphClass: 2
Flags: W
LayerCount: 2
Fore
SplineSet
744 1156 m 257
 542 1156 l 258
 370 1156 210 1012 210 786 c 256
 210 560 370 417 542 417 c 258
 744 417 l 257
 744 1156 l 257
1120 -431 m 257
 1015 -431 l 257
 1015 1156 l 257
 849 1156 l 257
 849 -431 l 257
 744 -431 l 257
 744 327 l 257
 542 327 l 258
 294 327 105 529 105 786 c 256
 105 1043 294 1245 542 1245 c 258
 1120 1245 l 257
 1120 -431 l 257
EndSplineSet
EndChar

StartChar: parenleft
Encoding: 40 40 157
GlifName: parenleft
Width: 516
VWidth: 0
GlyphClass: 2
Flags: W
LayerCount: 2
Fore
SplineSet
412 -86 m 257
 321 -145 l 257
 195 52 105 351 105 712 c 256
 105 1073 195 1372 321 1569 c 257
 412 1510 l 257
 293 1324 210 1053 210 712 c 256
 210 371 293 100 412 -86 c 257
EndSplineSet
EndChar

StartChar: parenright
Encoding: 41 41 158
GlifName: parenright
Width: 516
VWidth: 0
GlyphClass: 2
Flags: W
LayerCount: 2
Fore
SplineSet
105 1510 m 257
 195 1569 l 257
 321 1372 412 1073 412 712 c 256
 412 351 321 52 195 -145 c 257
 105 -86 l 257
 224 100 307 371 307 712 c 256
 307 1053 224 1324 105 1510 c 257
EndSplineSet
EndChar

StartChar: period
Encoding: 46 46 160
GlifName: period
Width: 577
VWidth: 0
GlyphClass: 2
Flags: W
LayerCount: 2
Fore
SplineSet
200 89 m 256
 200 138 241 177 290 177 c 256
 339 177 378 138 378 89 c 256
 378 40 339 0 290 0 c 256
 241 0 200 40 200 89 c 256
EndSplineSet
EndChar

StartChar: plus
Encoding: 43 43 162
GlifName: plus
Width: 1042
VWidth: 0
GlyphClass: 2
Flags: W
LayerCount: 2
Fore
SplineSet
917 582 m 257
 917 494 l 257
 573 494 l 257
 573 143 l 257
 468 143 l 257
 468 494 l 257
 126 494 l 257
 126 582 l 257
 468 582 l 257
 468 933 l 257
 573 933 l 257
 573 582 l 257
 917 582 l 257
EndSplineSet
EndChar

StartChar: q
Encoding: 113 113 164
GlifName: q
Width: 1117
VWidth: 0
GlyphClass: 2
Flags: W
LayerCount: 2
Fore
SplineSet
855 901 m 257
 960 901 l 257
 960 -431 l 257
 855 -431 l 257
 855 901 l 257
EndSplineSet
Refer: 316 57359 N -1 0 0 -1 1138 901 2
EndChar

StartChar: question
Encoding: 63 63 165
GlifName: question
Width: 1042
VWidth: 0
GlyphClass: 2
Flags: W
LayerCount: 2
Fore
SplineSet
514 0 m 256
 465 0 424 40 424 89 c 256
 424 138 465 177 514 177 c 256
 563 177 602 138 602 89 c 256
 602 40 563 0 514 0 c 256
260 852 m 257
 155 839 l 257
 151 869 150 898 150 925 c 256
 150 1088 258 1267 515 1267 c 256
 765 1267 892 1100 892 925 c 256
 892 781 802 675 709 602 c 256
 618.677 531.101 552 477 552 359 c 257
 447 359 l 257
 447 510 546.213 595.445 644 673 c 256
 731 742 787 817 787 927 c 256
 787 1072 688 1178 515 1178 c 256
 330 1178 255 1059 255 925 c 256
 255 900 256 876 260 852 c 257
EndSplineSet
EndChar

StartChar: quoteleft
Encoding: 8216 8216 170
GlifName: quoteleft
Width: 527
VWidth: 0
GlyphClass: 2
Flags: W
LayerCount: 2
Fore
SplineSet
374 1347 m 256
 374 1270 302 1219 222 1251 c 257
 227 1154 280 1076 340 1016 c 257
 289 968 l 257
 217 1038 153 1144 153 1291 c 256
 153 1402 192 1456 270 1456 c 256
 332 1456 374 1409 374 1347 c 256
EndSplineSet
EndChar

StartChar: quoteright
Encoding: 8217 8217 171
GlifName: quoteright
Width: 527
VWidth: 0
GlyphClass: 2
Flags: W
LayerCount: 2
Fore
SplineSet
153 1347 m 256
 153 1409 195 1456 257 1456 c 256
 335 1456 374 1402 374 1291 c 256
 374 1144 310 1038 238 968 c 257
 187 1016 l 257
 247 1076 301 1154 306 1251 c 257
 226 1219 153 1270 153 1347 c 256
EndSplineSet
EndChar

StartChar: quotesingle
Encoding: 39 39 172
GlifName: quotesingle
Width: 420
VWidth: 0
GlyphClass: 2
Flags: W
LayerCount: 2
Fore
SplineSet
168 1246 m 257
 252 1246 l 257
 252 736 l 257
 168 736 l 257
 168 1246 l 257
EndSplineSet
EndChar

StartChar: r
Encoding: 114 114 173
GlifName: r
Width: 718
VWidth: 0
GlyphClass: 2
Flags: W
LayerCount: 2
Fore
SplineSet
158 901 m 257
 263 901 l 257
 263 0 l 257
 158 0 l 257
 158 901 l 257
EndSplineSet
Refer: 315 57358 N 1 0 0 1 0 -126 2
EndChar

StartChar: registered
Encoding: 174 174 174
GlifName: registered
Width: 1795
VWidth: 0
GlyphClass: 2
Flags: W
LayerCount: 2
Fore
SplineSet
126 728 m 256
 126 1144 465 1490 898 1490 c 256
 1331 1490 1670 1144 1670 728 c 256
 1670 312 1331 -35 898 -35 c 256
 465 -35 126 312 126 728 c 256
231 728 m 256
 231 350 537 54 898 54 c 256
 1259 54 1565 350 1565 728 c 256
 1565 1106 1259 1400 898 1400 c 256
 537 1400 231 1106 231 728 c 256
725 675 m 257
 931 675 l 258
 1048 675 1142 746 1142 860 c 256
 1142 974 1049 1047 931 1047 c 258
 725 1047 l 257
 725 675 l 257
1224 351 m 257
 1137 300 l 257
 903 585 l 257
 725 585 l 257
 725 326 l 257
 620 326 l 257
 620 1137 l 257
 931 1137 l 258
 1105 1137 1247 1021 1247 860 c 256
 1247 728 1150 629 1022 597 c 257
 1224 351 l 257
EndSplineSet
EndChar

StartChar: s
Encoding: 115 115 175
GlifName: s
Width: 860
VWidth: 0
GlyphClass: 2
Flags: W
LayerCount: 2
Fore
SplineSet
752 807 m 257
 690 733 l 257
 622 791 543 832 443 832 c 256
 326 832 225 768 225 667 c 256
 225 554 343 517 450 493 c 256
 590 462 755 401 755 229 c 256
 755 46 590 -23 414 -23 c 256
 290 -23 173 8 95 57 c 257
 145 135 l 257
 208 94 308 65 414 65 c 256
 541 65 650 103 650 229 c 256
 650 340 515 385 410 411 c 256
 270 446 120 497 120 667 c 256
 120 819 271 922 443 922 c 256
 568 922 672 874 752 807 c 257
EndSplineSet
EndChar

StartChar: section
Encoding: 167 167 176
GlifName: section
Width: 892
VWidth: 0
GlyphClass: 2
Flags: W
LayerCount: 2
Fore
SplineSet
788 643 m 256
 788 525 716 457 631 422 c 257
 702 386 766 329 766 225 c 256
 766 42 600 -27 424 -27 c 256
 300 -27 183 4 105 53 c 257
 155 131 l 257
 218 90 318 61 424 61 c 256
 551 61 661 99 661 225 c 256
 661 350 541 381 414 409 c 256
 275 439 130 477 130 642 c 256
 130 742 196 820 289 862 c 257
 215 897 152 955 152 1060 c 256
 152 1212 304 1315 476 1315 c 256
 601 1315 705 1266 785 1199 c 257
 723 1126 l 257
 655 1184 576 1225 476 1225 c 256
 359 1225 257 1161 257 1060 c 256
 257 940 375 909 500 881 c 256
 640 849 788 811 788 643 c 256
683 631 m 256
 683 747 564 810 446 810 c 257
 337 810 235 742 235 632 c 256
 235 525 361 480 471 480 c 257
 577 480 683 519 683 631 c 256
EndSplineSet
EndChar

StartChar: seven
Encoding: 55 55 178
GlifName: seven
Width: 1070
VWidth: 0
GlyphClass: 2
Flags: W
LayerCount: 2
Fore
SplineSet
105 1155 m 257
 105 1246 l 257
 927 1246 l 257
 965 1155 l 257
 416 -27 l 257
 322 17 l 257
 853 1155 l 257
 105 1155 l 257
EndSplineSet
EndChar

StartChar: simpledot
Encoding: 1114122 -1 179
GlifName: simpledot
Width: 2243
VWidth: 0
GlyphClass: 2
Flags: W
LayerCount: 2
Fore
SplineSet
1134 112 m 257
 1247 225 l 257
 1359 112 l 257
 1247 0 l 257
 1134 112 l 257
EndSplineSet
EndChar

StartChar: six
Encoding: 54 54 180
GlifName: six
Width: 1067
VWidth: 0
GlyphClass: 2
Flags: W
LayerCount: 2
Fore
SplineSet
549 708 m 256
 404 708 279 614 211 515 c 257
 222 263 290 69 548 69 c 256
 748 69 857 195 857 393 c 256
 857 582 728 708 549 708 c 256
549 798 m 256
 780 798 962 635 962 393 c 256
 962 144 804 -21 548 -21 c 256
 208 -21 105 238 105 577 c 256
 105 948 225 1267 577 1267 c 256
 737 1267 847 1191 924 1102 c 257
 850 1038 l 257
 786 1114 709 1176 577 1176 c 256
 317 1176 222 921 210 630 c 257
 275 710 419 798 549 798 c 256
EndSplineSet
EndChar

StartChar: slash
Encoding: 47 47 181
GlifName: slash
Width: 1102
VWidth: 0
GlyphClass: 2
Flags: W
LayerCount: 2
Fore
SplineSet
845 1290 m 257
 935 1246 l 257
 252 -48 l 257
 163 0 l 257
 845 1290 l 257
EndSplineSet
EndChar

StartChar: sterling
Encoding: 163 163 183
GlifName: sterling
Width: 1180
VWidth: 0
GlyphClass: 2
Flags: W
LayerCount: 2
Fore
SplineSet
624 1178 m 256
 522 1178 427 1094 427 973 c 258
 427 273 l 258
 427 204 409 139 365 90 c 257
 1054 90 l 257
 1054 0 l 257
 126 0 l 257
 126 90 l 257
 254 90 322 145 322 273 c 258
 322 973 l 258
 322 1129 449 1267 624 1267 c 256
 778 1267 897 1158 921 1026 c 257
 818 1013 l 257
 800 1112 715 1178 624 1178 c 256
EndSplineSet
Refer: 311 57354 N 1 0 0 1 21 0 2
EndChar

StartChar: t
Encoding: 116 116 184
GlifName: t
Width: 707
VWidth: 0
GlyphClass: 2
Flags: W
LayerCount: 2
Fore
SplineSet
645 90 m 257
 645 0 l 257
 477 0 l 258
 339 0 239 108 239 229 c 258
 239 1193 l 257
 344 1193 l 257
 344 229 l 258
 344 146 411 90 477 90 c 258
 645 90 l 257
EndSplineSet
Refer: 311 57354 N 1 0 0 1 -74 360 2
EndChar

StartChar: three
Encoding: 51 51 186
GlifName: three
Width: 1131
VWidth: 0
GlyphClass: 2
Flags: W
LayerCount: 2
Fore
SplineSet
105 354 m 257
 210 354 l 257
 210 161 372 69 559 69 c 256
 746 69 911 148 911 341 c 256
 911 550 754 639 550 639 c 258
 476 639 l 257
 476 729 l 257
 550 729 l 258
 722 729 871 805 871 966 c 256
 871 1133 734 1222 571 1222 c 256
 407 1222 269 1144 269 975 c 257
 164 975 l 257
 164 1199 356 1311 571 1311 c 256
 788 1311 976 1181 976 966 c 256
 976 838 895 737 783 686 c 257
 914 631 1016 524 1016 341 c 256
 1016 92 797 -21 559 -21 c 256
 321 -21 105 107 105 354 c 257
EndSplineSet
EndChar

StartChar: threequarters
Encoding: 190 190 187
GlifName: threequarters
Width: 2247
VWidth: 0
GlyphClass: 2
Flags: W
LayerCount: 2
Fore
SplineSet
1937 -128 m 257
 2090 -128 l 257
 2090 -216 l 257
 1937 -216 l 257
 1937 -481 l 257
 1832 -481 l 257
 1832 -216 l 257
 1292 -216 l 257
 1292 -123 l 257
 1815 674 l 257
 1937 674 l 257
 1937 -128 l 257
1832 -128 m 257
 1832 518 l 257
 1408 -128 l 257
 1832 -128 l 257
105 755 m 257
 210 755 l 257
 210 572 340 496 465 496 c 256
 603 496 719 594 719 716 c 256
 719 887 612 945 447 945 c 258
 357 945 l 257
 357 1033 l 257
 447 1033 l 258
 611 1033 719 1091 719 1263 c 256
 719 1385 603 1483 465 1483 c 256
 340 1483 210 1407 210 1224 c 257
 105 1224 l 257
 105 1451 281 1573 465 1573 c 256
 661 1573 824 1433 824 1263 c 256
 824 1133 766 1039 666 989 c 257
 765 940 824 847 824 716 c 256
 824 546 661 407 465 407 c 256
 281 407 105 528 105 755 c 257
823 -83 m 257
 735 -35 l 257
 1713 1401 l 257
 1801 1353 l 257
 823 -83 l 257
EndSplineSet
EndChar

StartChar: two
Encoding: 50 50 188
GlifName: two
Width: 1046
VWidth: 0
GlyphClass: 2
Flags: W
LayerCount: 2
Fore
SplineSet
941 0 m 257
 105 0 l 257
 105 105 l 258
 105 261 249 385 495 482 c 256
 702 564 820 617 820 870 c 256
 820 1061 689 1178 516 1178 c 256
 343 1178 210 1061 210 870 c 257
 105 870 l 257
 105 1114 291 1267 516 1267 c 256
 741 1267 925 1113 925 870 c 256
 925 580 762 487 539 400 c 256
 304 308 210 207 210 105 c 258
 210 90 l 257
 941 90 l 257
 941 0 l 257
EndSplineSet
EndChar

StartChar: u
Encoding: 117 117 189
GlifName: u
Width: 1121
VWidth: 0
GlyphClass: 2
Flags: W
LayerCount: 2
Fore
SplineSet
859 901 m 257
 964 901 l 257
 964 0 l 257
 859 0 l 257
 859 901 l 257
EndSplineSet
Refer: 314 57357 N -1 0 0 -1 1122 901 2
EndChar

StartChar: underscore
Encoding: 95 95 194
GlifName: underscore
Width: 699
VWidth: 0
GlyphClass: 2
Flags: W
LayerCount: 2
Fore
SplineSet
699 105 m 257
 699 0 l 257
 0 0 l 257
 0 105 l 257
 699 105 l 257
EndSplineSet
EndChar

StartChar: uni00AD
Encoding: 173 173 196
GlifName: uni00A_D_
Width: 1042
VWidth: 0
GlyphClass: 2
Flags: W
LayerCount: 2
Fore
SplineSet
917 586 m 257
 917 498 l 257
 126 498 l 257
 126 586 l 257
 917 586 l 257
EndSplineSet
EndChar

StartChar: uni00B2
Encoding: 178 178 197
GlifName: uni00B_2
Width: 691
VWidth: 0
GlyphClass: 2
Flags: W
LayerCount: 2
Fore
SplineSet
126 907 m 257
 126 970 l 257
 412 1234 l 258
 442 1264 460 1286 460 1342 c 256
 460 1429 396 1470 325 1470 c 256
 254 1470 189 1429 189 1342 c 257
 126 1342 l 257
 126 1471 228 1533 325 1533 c 256
 422 1533 523 1471 523 1342 c 256
 523 1267 491 1225 456 1190 c 258
 215 970 l 257
 534 970 l 257
 534 907 l 257
 126 907 l 257
EndSplineSet
EndChar

StartChar: uni00B3
Encoding: 179 179 198
GlifName: uni00B_3
Width: 636
VWidth: 0
GlyphClass: 2
Flags: W
LayerCount: 2
Fore
SplineSet
189 1361 m 257
 126 1361 l 257
 126 1461 216 1533 318 1533 c 256
 420 1533 510 1461 510 1361 c 256
 510 1301 479 1252 430 1220 c 257
 477 1190 510 1140 510 1080 c 256
 510 980 420 907 318 907 c 256
 216 907 126 980 126 1080 c 257
 189 1080 l 257
 189 1022 243 970 318 970 c 256
 393 970 447 1022 447 1080 c 256
 447 1138 393 1189 318 1189 c 258
 254 1189 l 257
 254 1252 l 257
 318 1252 l 258
 393 1252 447 1303 447 1361 c 256
 447 1419 393 1470 318 1470 c 256
 243 1470 189 1419 189 1361 c 257
EndSplineSet
EndChar

StartChar: uni00B9
Encoding: 185 185 199
GlifName: uni00B_9
Width: 479
VWidth: 0
GlyphClass: 2
Flags: W
LayerCount: 2
Fore
SplineSet
93 1321 m 257
 93 1384 l 257
 263 1384 l 257
 263 1502 l 257
 326 1502 l 257
 326 844 l 257
 263 844 l 257
 263 1321 l 257
 93 1321 l 257
EndSplineSet
EndChar

StartChar: uni0237
Encoding: 567 567 200
GlifName: uni0237
Width: 420
VWidth: 0
GlyphClass: 2
Flags: W
LayerCount: 2
Fore
SplineSet
158 -170 m 258
 158 901 l 257
 263 901 l 257
 263 -170 l 258
 263 -290 162 -399 24 -399 c 258
 -58 -399 l 257
 -58 -309 l 257
 24 -309 l 258
 90 -309 158 -252 158 -170 c 258
EndSplineSet
EndChar

StartChar: uni060C
Encoding: 1548 1548 201
GlifName: uni060C_
Width: 577
VWidth: 0
GlyphClass: 2
Flags: W
LayerCount: 2
Fore
SplineSet
399 108 m 256
 399 46 357 0 295 0 c 256
 217 0 179 54 179 165 c 256
 179 312 242 417 314 487 c 257
 365 440 l 257
 305 380 252 302 247 205 c 257
 327 237 399 185 399 108 c 256
EndSplineSet
EndChar

StartChar: uni0615
Encoding: 1557 1557 202
GlifName: uni0615
Width: 0
VWidth: 0
GlyphClass: 4
AnchorPoint: "Anchor-1" 0 1652 basechar 0
AnchorPoint: "Anchor-1" 0 1296 mark 0
AnchorPoint: "Anchor-5" 0 1296 mark 0
AnchorPoint: "Anchor-4" 0 1296 mark 0
LayerCount: 2
Fore
SplineSet
279 1798 m 256
 279 1630 73 1619 -154 1617 c 258
 -279 1617 l 257
 -279 1680 l 257
 -153 1680 l 257
 -153 2135 l 257
 -90 2135 l 257
 -90 1800 l 257
 -22 1891 58 1939 134 1939 c 256
 214 1939 279 1884 279 1798 c 256
-89 1681 m 257
 131 1686 216 1716 216 1798 c 256
 216 1848 184 1876 134 1876 c 256
 72 1876 -18 1821 -89 1681 c 257
EndSplineSet
EndChar

StartChar: uni061F
Encoding: 1567 1567 204
GlifName: uni061F_
Width: 1057
VWidth: 0
GlyphClass: 2
Flags: W
LayerCount: 2
Fore
SplineSet
536 177 m 256
 585 177 626 138 626 89 c 256
 626 40 585 0 536 0 c 256
 487 0 448 40 448 89 c 256
 448 138 487 177 536 177 c 256
603 359 m 257
 498 359 l 257
 498 477 431.323 531.101 341 602 c 256
 248 675 158 781 158 925 c 256
 158 1100 285 1267 535 1267 c 256
 792 1267 900 1088 900 925 c 256
 900 898 899 869 895 839 c 257
 790 852 l 257
 794 876 795 900 795 925 c 256
 795 1059 720 1178 535 1178 c 256
 362 1178 263 1072 263 927 c 256
 263 817 319 742 406 673 c 256
 503.787 595.445 603 510 603 359 c 257
EndSplineSet
EndChar

StartChar: uni0660
Encoding: 1632 1632 256
GlifName: uni0660
Width: 887
VWidth: 0
GlyphClass: 2
Flags: W
LayerCount: 2
Fore
SplineSet
443 628 m 256
 341 628 263 549 263 447 c 256
 263 345 342 265 443 265 c 256
 544 265 625 345 625 447 c 256
 625 548 545 628 443 628 c 256
443 733 m 256
 602 733 730 607 730 447 c 256
 730 288 603 160 443 160 c 256
 283 160 158 288 158 447 c 256
 158 606 284 733 443 733 c 256
EndSplineSet
PairPos2: "'kern' Horizontal Kerning in Arabic lookup 7 per glyph data 0" uni0661 dx=53 dy=0 dh=53 dv=0 dx=0 dy=0 dh=0 dv=0
PairPos2: "'kern' Horizontal Kerning in Arabic lookup 7 per glyph data 0" uni0667 dx=-105 dy=0 dh=-105 dv=0 dx=0 dy=0 dh=0 dv=0
PairPos2: "'kern' Horizontal Kerning in Arabic lookup 7 per glyph data 0" uni0666 dx=-26 dy=0 dh=-26 dv=0 dx=0 dy=0 dh=0 dv=0
PairPos2: "'kern' Horizontal Kerning in Arabic lookup 7 per glyph data 0" uni0662 dx=-131 dy=0 dh=-131 dv=0 dx=0 dy=0 dh=0 dv=0
EndChar

StartChar: uni0661
Encoding: 1633 1633 257
GlifName: uni0661
Width: 649
VWidth: 0
GlyphClass: 2
Flags: W
LayerCount: 2
Fore
SplineSet
492 0 m 257
 386 0 l 257
 386 483 313 794 161 1233 c 257
 259 1267 l 257
 413 820 492 494 492 0 c 257
EndSplineSet
PairPos2: "'kern' Horizontal Kerning in Arabic lookup 7 per glyph data 0" uni0665 dx=-53 dy=0 dh=-53 dv=0 dx=0 dy=0 dh=0 dv=0
PairPos2: "'kern' Horizontal Kerning in Arabic lookup 7 per glyph data 0" uni0660 dx=-53 dy=0 dh=-53 dv=0 dx=0 dy=0 dh=0 dv=0
EndChar

StartChar: uni0662
Encoding: 1634 1634 258
GlifName: uni0662
Width: 1098
VWidth: 0
GlyphClass: 2
Flags: W
LayerCount: 2
Fore
SplineSet
595 792 m 256
 811 792 836 973 836 1256 c 257
 941 1256 l 257
 941 1003 931 687 595 687 c 256
 531 687 469 704 413 747 c 257
 463 504 492 278 492 0 c 257
 386 0 l 257
 386 490 282 841 160 1236 c 257
 260 1267 l 257
 364 921 405 792 595 792 c 256
EndSplineSet
EndChar

StartChar: uni0663
Encoding: 1635 1635 259
GlifName: uni0663
Width: 1452
VWidth: 0
GlyphClass: 2
Flags: W
LayerCount: 2
Fore
SplineSet
861 1246 m 257
 853 1159 847 1079 847 1015 c 256
 847 873 880 793 1009 793 c 256
 1156 793 1188 940 1188 1092 c 256
 1188 1138 1183 1195 1174 1246 c 257
 1277 1267 l 257
 1288 1208 1293 1149 1293 1094 c 256
 1293 891 1217 688 1002 688 c 256
 883 688 804 760 777 858 c 257
 741 762 682 688 555 688 c 256
 499 688 454 705 413 737 c 257
 461 499 492 273 492 0 c 257
 386 0 l 257
 386 489 286 859 160 1236 c 257
 260 1267 l 257
 367 917 412 793 555 793 c 256
 725 793 740 968 759 1255 c 257
 861 1246 l 257
EndSplineSet
PairPos2: "'kern' Horizontal Kerning in Arabic lookup 7 per glyph data 0" uni0668 dx=-53 dy=0 dh=-53 dv=0 dx=0 dy=0 dh=0 dv=0
EndChar

StartChar: uni0664
Encoding: 1636 1636 260
GlifName: uni0664
Width: 1068
VWidth: 0
GlyphClass: 2
Flags: W
LayerCount: 2
Fore
SplineSet
458 648 m 257
 324 686 222 745 222 892 c 256
 222 1089 447 1236 712 1267 c 257
 730 1166 l 257
 467 1134 327 999 327 892 c 256
 327 747 480 710 726 710 c 257
 726 605 l 257
 449 605 263 433 263 273 c 256
 263 125 431 105 602 105 c 258
 858 105 l 257
 858 0 l 257
 551 0 l 258
 401 0 158 45 158 273 c 256
 158 423 271 578 458 648 c 257
EndSplineSet
PairPos2: "'kern' Horizontal Kerning in Arabic lookup 7 per glyph data 0" uni0666 dx=53 dy=0 dh=53 dv=0 dx=0 dy=0 dh=0 dv=0
EndChar

StartChar: uni0665
Encoding: 1637 1637 261
GlifName: uni0665
Width: 1224
VWidth: 0
GlyphClass: 2
Flags: W
LayerCount: 2
Fore
SplineSet
508 1267 m 257
 762 1056 1067 716 1067 361 c 256
 1067 84 894 -21 621 -21 c 256
 357 -21 158 83 158 358 c 256
 158 616 291 847 549 1090 c 257
 512 1125 477 1158 441 1187 c 257
 508 1267 l 257
624 1017 m 257
 374 784 263 575 263 358 c 256
 263 156 387 84 621 84 c 256
 863 84 962 151 962 361 c 256
 962 583 818 816 624 1017 c 257
EndSplineSet
PairPos2: "'kern' Horizontal Kerning in Arabic lookup 7 per glyph data 0" uni0661 dx=53 dy=0 dh=53 dv=0 dx=0 dy=0 dh=0 dv=0
PairPos2: "'kern' Horizontal Kerning in Arabic lookup 7 per glyph data 0" uni0667 dx=-105 dy=0 dh=-105 dv=0 dx=0 dy=0 dh=0 dv=0
EndChar

StartChar: uni0666
Encoding: 1638 1638 262
GlifName: uni0666
Width: 1179
VWidth: 0
GlyphClass: 2
Flags: W
LayerCount: 2
Fore
SplineSet
158 1159 m 257
 175 1262 l 257
 333 1244 459 1240 578 1240 c 256
 692 1240 780 1246 849 1258 c 257
 910 1205 l 257
 906 1107 903 1014 903 925 c 256
 903 541 933 334 1022 25 c 257
 920 0 l 257
 830 313 798 536 798 925 c 256
 798 997 799 1067 802 1146 c 257
 741 1139 673 1135 571 1135 c 256
 452 1135 319 1140 158 1159 c 257
EndSplineSet
PairPos2: "'kern' Horizontal Kerning in Arabic lookup 7 per glyph data 0" uni0664 dx=-53 dy=0 dh=-53 dv=0 dx=0 dy=0 dh=0 dv=0
PairPos2: "'kern' Horizontal Kerning in Arabic lookup 7 per glyph data 0" uni0665 dx=-184 dy=0 dh=-184 dv=0 dx=0 dy=0 dh=0 dv=0
PairPos2: "'kern' Horizontal Kerning in Arabic lookup 7 per glyph data 0" uni0660 dx=-210 dy=0 dh=-210 dv=0 dx=0 dy=0 dh=0 dv=0
PairPos2: "'kern' Horizontal Kerning in Arabic lookup 7 per glyph data 0" uni066B dx=-158 dy=0 dh=-158 dv=0 dx=0 dy=0 dh=0 dv=0
PairPos2: "'kern' Horizontal Kerning in Arabic lookup 7 per glyph data 0" uni0668 dx=-210 dy=0 dh=-210 dv=0 dx=0 dy=0 dh=0 dv=0
EndChar

StartChar: uni0667
Encoding: 1639 1639 263
GlifName: uni0667
Width: 1381
VWidth: 0
GlyphClass: 2
Flags: W
LayerCount: 2
Fore
SplineSet
1129 1267 m 257
 1213 1201 l 257
 968 883 844 606 740 0 c 257
 642 0 l 257
 538 606 413 884 168 1201 c 257
 252 1267 l 257
 468 986 633 683 691 231 c 257
 748 682 913 986 1129 1267 c 257
EndSplineSet
PairPos2: "'kern' Horizontal Kerning in Arabic lookup 7 per glyph data 0" uni0660 dx=-105 dy=0 dh=-105 dv=0 dx=0 dy=0 dh=0 dv=0
PairPos2: "'kern' Horizontal Kerning in Arabic lookup 7 per glyph data 0" uni0665 dx=-105 dy=0 dh=-105 dv=0 dx=0 dy=0 dh=0 dv=0
PairPos2: "'kern' Horizontal Kerning in Arabic lookup 7 per glyph data 0" uni0668 dx=-158 dy=0 dh=-158 dv=0 dx=0 dy=0 dh=0 dv=0
PairPos2: "'kern' Horizontal Kerning in Arabic lookup 7 per glyph data 0" uni066B dx=-131 dy=0 dh=-131 dv=0 dx=0 dy=0 dh=0 dv=0
EndChar

StartChar: uni0668
Encoding: 1640 1640 264
GlifName: uni0668
Width: 1381
VWidth: 0
GlyphClass: 2
Flags: W
LayerCount: 2
Fore
SplineSet
252 -21 m 257
 168 44 l 257
 413 362 537 640 641 1246 c 257
 739 1246 l 257
 843 640 968 361 1213 44 c 257
 1129 -21 l 257
 913 260 748 563 690 1015 c 257
 633 564 468 260 252 -21 c 257
EndSplineSet
PairPos2: "'kern' Horizontal Kerning in Arabic lookup 7 per glyph data 0" uni0663 dx=-210 dy=0 dh=-210 dv=0 dx=0 dy=0 dh=0 dv=0
PairPos2: "'kern' Horizontal Kerning in Arabic lookup 7 per glyph data 0" uni0662 dx=-184 dy=0 dh=-184 dv=0 dx=0 dy=0 dh=0 dv=0
PairPos2: "'kern' Horizontal Kerning in Arabic lookup 7 per glyph data 0" uni0667 dx=-158 dy=0 dh=-158 dv=0 dx=0 dy=0 dh=0 dv=0
EndChar

StartChar: uni0669
Encoding: 1641 1641 265
GlifName: uni0669
Width: 1087
VWidth: 0
GlyphClass: 2
Flags: W
LayerCount: 2
Fore
SplineSet
727 583 m 257
 661 564 594 552 515 552 c 256
 325 552 160 628 160 850 c 256
 160 1053 270 1262 492 1262 c 256
 735 1262 812 1047 820 824 c 256
 822 757 823 697 823 641 c 256
 823 318 854 205 925 42 c 257
 829 0 l 257
 755 167 727 349 727 583 c 257
719 691 m 257
 715 821 l 258
 708 1035 647 1157 492 1157 c 256
 357 1157 265 1023 265 851 c 256
 265 710 341 656 505 656 c 256
 587 656 651 669 719 691 c 257
EndSplineSet
PairPos2: "'kern' Horizontal Kerning in Arabic lookup 7 per glyph data 0" uni066B dx=210 dy=0 dh=210 dv=0 dx=0 dy=0 dh=0 dv=0
PairPos2: "'kern' Horizontal Kerning in Arabic lookup 7 per glyph data 0" uni0668 dx=-158 dy=0 dh=-158 dv=0 dx=0 dy=0 dh=0 dv=0
PairPos2: "'kern' Horizontal Kerning in Arabic lookup 7 per glyph data 0" uni0665 dx=-53 dy=0 dh=-53 dv=0 dx=0 dy=0 dh=0 dv=0
EndChar

StartChar: uni066B
Encoding: 1643 1643 267
GlifName: uni066B_
Width: 826
VWidth: 0
GlyphClass: 2
Flags: W
LayerCount: 2
Fore
SplineSet
232 -626 m 257
 133 -588 l 257
 604 614 l 257
 703 576 l 257
 232 -626 l 257
EndSplineSet
PairPos2: "'kern' Horizontal Kerning in Arabic lookup 7 per glyph data 1" uni06F7 dx=-105 dy=0 dh=-105 dv=0 dx=0 dy=0 dh=0 dv=0
PairPos2: "'kern' Horizontal Kerning in Arabic lookup 7 per glyph data 1" uni06F0 dx=-53 dy=0 dh=-53 dv=0 dx=0 dy=0 dh=0 dv=0
PairPos2: "'kern' Horizontal Kerning in Arabic lookup 7 per glyph data 1" uni06F3 dx=-79 dy=0 dh=-79 dv=0 dx=0 dy=0 dh=0 dv=0
PairPos2: "'kern' Horizontal Kerning in Arabic lookup 7 per glyph data 1" uni06F2 dx=-105 dy=0 dh=-105 dv=0 dx=0 dy=0 dh=0 dv=0
PairPos2: "'kern' Horizontal Kerning in Arabic lookup 7 per glyph data 1" uni066B dx=-53 dy=0 dh=-53 dv=0 dx=0 dy=0 dh=0 dv=0
PairPos2: "'kern' Horizontal Kerning in Arabic lookup 7 per glyph data 0" uni0663 dx=-158 dy=0 dh=-158 dv=0 dx=0 dy=0 dh=0 dv=0
PairPos2: "'kern' Horizontal Kerning in Arabic lookup 7 per glyph data 0" uni0662 dx=-105 dy=0 dh=-105 dv=0 dx=0 dy=0 dh=0 dv=0
PairPos2: "'kern' Horizontal Kerning in Arabic lookup 7 per glyph data 0" uni0667 dx=-105 dy=0 dh=-105 dv=0 dx=0 dy=0 dh=0 dv=0
EndChar

StartChar: uni066C
Encoding: 1644 1644 268
GlifName: uni066C_
Width: 616
VWidth: 0
GlyphClass: 2
Flags: W
LayerCount: 2
Fore
SplineSet
245 -326 m 257
 170 -268 l 257
 238 -184 293 -85 315 0 c 257
 254 0 163 53 163 144 c 256
 163 222 220 290 299 290 c 256
 380 290 454 238 454 114 c 256
 454 -17 344 -222 245 -326 c 257
EndSplineSet
EndChar

StartChar: uni066D
Encoding: 1645 1645 269
GlifName: uni066D_
Width: 955
VWidth: 0
GlyphClass: 2
Flags: W
LayerCount: 2
Fore
SplineSet
517 605 m 257
 439 605 l 257
 439 962 l 257
 130 785 l 257
 90 852 l 257
 399 1031 l 257
 90 1210 l 257
 130 1277 l 257
 439 1100 l 257
 439 1456 l 257
 517 1456 l 257
 517 1100 l 257
 826 1277 l 257
 865 1210 l 257
 557 1031 l 257
 865 852 l 257
 826 785 l 257
 517 962 l 257
 517 605 l 257
EndSplineSet
EndChar

StartChar: uni06F4
Encoding: 1780 1780 295
GlifName: uni06F_4
Width: 1220
VWidth: 0
GlyphClass: 2
Flags: W
LayerCount: 2
Fore
SplineSet
414 687 m 257
 459 477 487 252 487 0 c 257
 382 0 l 257
 382 485 281 819 158 1214 c 257
 258 1246 l 257
 302 1134 349 993 378 844 c 257
 378 1094 551 1267 743 1267 c 256
 817 1267 891 1245 961 1206 c 257
 912 1114 l 257
 863 1144 799 1162 743 1162 c 256
 590 1162 464 1024 464 835 c 256
 464 680 597 640 751 640 c 256
 835 640 920 655 984 681 c 257
 1010 586 l 257
 926 554 833 539 743 539 c 256
 605 539 483 589 414 687 c 257
EndSplineSet
PairPos2: "'kern' Horizontal Kerning in Arabic lookup 7 per glyph data 1" uni06F0 dx=-26 dy=0 dh=-26 dv=0 dx=0 dy=0 dh=0 dv=0
PairPos2: "'kern' Horizontal Kerning in Arabic lookup 7 per glyph data 1" uni06F8 dx=-53 dy=0 dh=-53 dv=0 dx=0 dy=0 dh=0 dv=0
EndChar

StartChar: uni06F5
Encoding: 1781 1781 296
GlifName: uni06F_5
Width: 1277
VWidth: 0
GlyphClass: 2
Flags: W
LayerCount: 2
Fore
SplineSet
632 134 m 257
 598 45 525 0 419 0 c 256
 266 0 142 117 142 348 c 256
 142 564 231 811 551 1088 c 257
 514 1118 475 1148 435 1176 c 257
 496 1262 l 257
 555 1221 612 1179 662 1132 c 256
 955 854 1135 592 1135 332 c 256
 1135 111 1006 0 858 0 c 256
 757 0 662 46 632 134 c 257
591 288 m 257
 675 288 l 257
 680 257 l 258
 694 153 775 105 858 105 c 256
 941 105 1030 153 1030 332 c 256
 1030 536 886 759 631 1018 c 257
 320 755 247 530 247 348 c 256
 247 159 331 105 419 105 c 256
 506 105 568 155 586 257 c 258
 591 288 l 257
EndSplineSet
PairPos2: "'kern' Horizontal Kerning in Arabic lookup 7 per glyph data 1" uni06F1 dx=53 dy=0 dh=53 dv=0 dx=0 dy=0 dh=0 dv=0
PairPos2: "'kern' Horizontal Kerning in Arabic lookup 7 per glyph data 1" uni06F2 dx=-26 dy=0 dh=-26 dv=0 dx=0 dy=0 dh=0 dv=0
PairPos2: "'kern' Horizontal Kerning in Arabic lookup 7 per glyph data 1" uni06F3 dx=-26 dy=0 dh=-26 dv=0 dx=0 dy=0 dh=0 dv=0
PairPos2: "'kern' Horizontal Kerning in Arabic lookup 7 per glyph data 1" uni06F7 dx=-105 dy=0 dh=-105 dv=0 dx=0 dy=0 dh=0 dv=0
PairPos2: "'kern' Horizontal Kerning in Arabic lookup 7 per glyph data 1" uni06F9 dx=-79 dy=0 dh=-79 dv=0 dx=0 dy=0 dh=0 dv=0
EndChar

StartChar: uni06F6
Encoding: 1782 1782 297
GlifName: uni06F_6
Width: 1085
VWidth: 0
GlyphClass: 2
Flags: W
LayerCount: 2
Fore
SplineSet
593 642 m 256
 713 642 817 668 901 701 c 257
 929 592 l 257
 656 471 435 268 255 0 c 257
 165 53 l 257
 298 251 455 413 635 538 c 257
 415 523 164 621 164 880 c 256
 164 1101 329 1262 540 1262 c 256
 660 1262 753 1211 815 1153 c 257
 744 1078 l 257
 699 1121 628 1157 540 1157 c 256
 388 1157 269 1046 269 883 c 256
 269 718 413 642 593 642 c 256
EndSplineSet
EndChar

StartChar: uniE000
Encoding: 57344 57344 301
GlifName: uniE_000
Width: 126
VWidth: 0
GlyphClass: 2
Flags: W
LayerCount: 2
Fore
SplineSet
0 105 m 258
 126 105 l 257
 126 0 l 257
 0 0 l 258
 -29 0 -53 24 -53 53 c 256
 -53 82 -29 105 0 105 c 258
EndSplineSet
EndChar

StartChar: uniE001
Encoding: 57345 57345 302
GlifName: uniE_001
Width: 336
VWidth: 0
GlyphClass: 2
Flags: W
LayerCount: 2
Fore
SplineSet
0 105 m 258
 336 105 l 257
 336 0 l 257
 0 0 l 258
 -29 0 -53 24 -53 53 c 256
 -53 82 -29 105 0 105 c 258
EndSplineSet
EndChar

StartChar: uniE002
Encoding: 57346 57346 303
GlifName: uniE_002
Width: 472
VWidth: 0
GlyphClass: 2
Flags: W
LayerCount: 2
Fore
SplineSet
0 105 m 258
 473 105 l 257
 473 0 l 257
 0 0 l 258
 -29 0 -53 24 -53 53 c 256
 -53 82 -29 105 0 105 c 258
EndSplineSet
EndChar

StartChar: uniE003
Encoding: 57347 57347 304
GlifName: uniE_003
Width: 1850
VWidth: 0
GlyphClass: 2
Flags: W
LayerCount: 2
Fore
SplineSet
1222 1311 m 257
 1280 1256 l 257
 188 -53 l 257
 130 2 l 257
 1222 1311 l 257
EndSplineSet
EndChar

StartChar: uniE004
Encoding: 57348 57348 305
GlifName: uniE_004
Width: 1142
VWidth: 0
GlyphClass: 2
Flags: W
LayerCount: 2
Fore
SplineSet
189 -50 m 257
 126 -2 l 257
 850 928 l 257
 913 880 l 257
 189 -50 l 257
EndSplineSet
EndChar

StartChar: uniE005
Encoding: 57349 57349 306
GlifName: uniE_005
Width: 1535
VWidth: 0
GlyphClass: 2
Flags: W
LayerCount: 2
Fore
SplineSet
1408 -32 m 257
 1347 -82 l 257
 855 506 l 257
 916 557 l 257
 1408 -32 l 257
EndSplineSet
EndChar

StartChar: uniE006
Encoding: 57350 57350 307
GlifName: uniE_006
Width: 1203
VWidth: 0
GlyphClass: 2
Flags: W
LayerCount: 2
Fore
SplineSet
248 154 m 257
 248 234 l 257
 956 234 l 257
 956 154 l 257
 248 154 l 257
248 423 m 257
 248 503 l 257
 956 503 l 257
 956 423 l 257
 248 423 l 257
EndSplineSet
EndChar

StartChar: uniE007
Encoding: 57351 57351 308
GlifName: uniE_007
Width: 912
VWidth: 0
GlyphClass: 2
Flags: W
LayerCount: 2
Fore
SplineSet
568 1569 m 257
 538 1585 504 1594 474 1594 c 256
 400 1594 356 1537 356 1489 c 256
 356 1443 393 1430 468 1409 c 256
 536 1390 577 1362 577 1290 c 256
 577 1188 483 1141 371 1141 c 256
 313 1141 266 1152 223 1172 c 257
 250 1229 l 257
 283 1214 321 1204 371 1204 c 256
 456 1204 514 1230 514 1277 c 256
 514 1323 490 1337 432 1354 c 256
 366 1373 293 1397 293 1481 c 256
 293 1589 373 1657 474 1657 c 256
 521 1657 556 1647 593 1628 c 257
 568 1569 l 257
EndSplineSet
EndChar

StartChar: uniE008
Encoding: 57352 57352 309
GlifName: uniE_008
Width: 1527
VWidth: 0
GlyphClass: 2
Flags: W
LayerCount: 2
Fore
SplineSet
573 1168 m 256
 573 1258 504 1337 412 1337 c 256
 320 1337 250 1258 250 1168 c 256
 250 1077 322 1003 412 1003 c 256
 502 1003 573 1077 573 1168 c 256
651 1168 m 256
 651 1035 546 925 412 925 c 256
 278 925 170 1035 170 1168 c 256
 170 1296 271 1417 412 1417 c 256
 553 1417 651 1296 651 1168 c 256
EndSplineSet
EndChar

StartChar: uniE009
Encoding: 57353 57353 310
GlifName: uniE_009
Width: 1203
VWidth: 0
GlyphClass: 2
Flags: W
LayerCount: 2
Fore
SplineSet
531 1565 m 257
 609 1565 l 257
 609 -238 l 257
 531 -238 l 257
 531 1565 l 257
EndSplineSet
EndChar

StartChar: uniE00A
Encoding: 57354 57354 311
GlifName: uniE_00A_
Width: 1275
VWidth: 0
GlyphClass: 2
Flags: W
LayerCount: 2
Fore
SplineSet
105 478 m 257
 105 558 l 257
 718 558 l 257
 718 478 l 257
 105 478 l 257
EndSplineSet
EndChar

StartChar: uniE00B
Encoding: 57355 57355 312
GlifName: uniE_00B_
Width: 1163
VWidth: 0
GlyphClass: 2
Flags: W
LayerCount: 2
Fore
SplineSet
794 335 m 257
 752 97 616 -21 404 -21 c 256
 253 -21 124 53 124 205 c 256
 124 422 361 537 599 537 c 256
 663 537 727 530 788 514 c 257
 759 435 l 257
 709 449 655 456 604 456 c 256
 412 456 231 357 231 209 c 256
 231 105 302 69 416 69 c 256
 579 69 699 169 731 346 c 257
 794 335 l 257
EndSplineSet
EndChar

StartChar: uniE00C
Encoding: 57356 57356 313
GlifName: uniE_00C_
Width: 1613
VWidth: 0
GlyphClass: 2
Flags: W
LayerCount: 2
Fore
SplineSet
817 560 m 257
 847 733 929 922 1157 922 c 256
 1399 922 1456 768 1456 578 c 258
 1456 0 l 257
 1351 0 l 257
 1351 578 l 258
 1351 732 1288 834 1126 834 c 256
 967 834 882 682 859 553 c 257
 817 560 l 257
EndSplineSet
EndChar

StartChar: uniE00D
Encoding: 57357 57357 314
GlifName: uniE_00D_
Width: 1121
VWidth: 0
GlyphClass: 2
Flags: W
LayerCount: 2
Fore
SplineSet
201 495 m 257
 291 742 394 922 639 922 c 256
 862 922 964 785 964 537 c 258
 964 0 l 257
 859 0 l 257
 859 537 l 258
 859 746 766 834 619 834 c 256
 423 834 337 682 261 473 c 257
 201 495 l 257
EndSplineSet
EndChar

StartChar: uniE00E
Encoding: 57358 57358 315
GlifName: uniE_00E_
Width: 791
VWidth: 0
GlyphClass: 2
Flags: W
LayerCount: 2
Fore
SplineSet
262 530 m 257
 211 540 l 257
 254 782 374 1048 621 1048 c 258
 687 1048 l 257
 687 949 l 257
 621 949 l 258
 393 949 302 756 262 530 c 257
EndSplineSet
EndChar

StartChar: uniE00F
Encoding: 57359 57359 316
GlifName: uniE_00F_
Width: 1216
VWidth: 0
GlyphClass: 2
Flags: W
LayerCount: 2
Fore
SplineSet
606 832 m 256
 395 832 284 666 284 451 c 256
 284 236 395 69 606 69 c 256
 817 69 928 236 928 451 c 256
 928 666 817 832 606 832 c 256
627 922 m 256
 882 922 1033 720 1033 451 c 256
 1033 182 882 -21 627 -21 c 256
 372 -21 221 182 221 451 c 256
 221 720 372 922 627 922 c 256
EndSplineSet
EndChar

StartChar: uniE020
Encoding: 57376 57376 326
GlifName: uniE_020
Width: 887
VWidth: 0
GlyphClass: 2
Flags: W
LayerCount: 2
Fore
SplineSet
654 605 m 257
 593 555 l 257
 554 601 494 644 404 644 c 256
 295 644 206 553 206 439 c 256
 206 292 311 233 473 216 c 257
 732 323 l 257
 761 250 l 257
 155 0 l 257
 126 74 l 257
 341 162 l 257
 237 191 126 270 126 424 c 256
 126 595 251 722 404 722 c 256
 522 722 605 664 654 605 c 257
EndSplineSet
EndChar

StartChar: uniE021
Encoding: 57377 57377 327
GlifName: uniE_021
Width: 525
VWidth: 0
GlyphClass: 2
Flags: W
LayerCount: 2
Fore
SplineSet
560 1652 m 257
 632 1619 l 257
 573 1492 509 1453 409 1453 c 256
 363 1453 304 1468 234 1493 c 256
 185 1511 146 1524 112 1524 c 256
 43 1524 -3 1461 -44 1402 c 257
 -107 1441 l 257
 -35 1574 45 1616 116 1616 c 256
 162 1616 189 1614 265 1585 c 256
 336 1558 380 1541 424 1541 c 256
 479 1541 527 1585 560 1652 c 257
315 1246 m 257
 315 26 l 257
 210 26 l 257
 210 1246 l 257
 315 1246 l 257
EndSplineSet
EndChar

StartChar: uniE022
Encoding: 57378 57378 328
GlifName: uniE_022
Width: 525
VWidth: 0
GlyphClass: 2
Flags: W
LayerCount: 2
Fore
SplineSet
315 26 m 257
 210 26 l 257
 210 1246 l 257
 315 1246 l 257
 315 26 l 257
EndSplineSet
EndChar

StartChar: uniE023
Encoding: 57379 57379 329
GlifName: uniE_023
Width: 1406
VWidth: 0
GlyphClass: 2
Flags: W
LayerCount: 2
Fore
SplineSet
1244 -550 m 257
 1281 -649 l 257
 1122 -709 968 -748 766 -748 c 256
 428 -748 126 -608 126 -264 c 256
 126 172 588 380 1113 525 c 257
 617 709 l 258
 575 723 537 728 505 728 c 256
 364 728 288 630 265 427 c 257
 160 440 l 257
 185 662 291 833 505 833 c 256
 551 833 599 827 650 808 c 258
 1258 584 l 257
 1258 456 l 257
 676 298 231 104 231 -264 c 256
 231 -514 438 -643 766 -643 c 256
 955 -643 1094 -606 1244 -550 c 257
EndSplineSet
EndChar

StartChar: uniE024
Encoding: 57380 57380 330
GlifName: uniE_024
Width: 968
VWidth: 0
GlyphClass: 2
Flags: W
LayerCount: 2
Fore
SplineSet
842 317 m 256
 842 78 592 0 363 0 c 256
 278 0 190 12 105 34 c 257
 131 134 l 257
 208 114 286 105 363 105 c 256
 590 105 737 178 737 317 c 256
 737 477 641 638 414 829 c 257
 481 908 l 257
 716 711 842 523 842 317 c 256
EndSplineSet
EndChar

StartChar: uniE025
Encoding: 57381 57381 331
GlifName: uniE_025
Width: 832
VWidth: 0
GlyphClass: 2
Flags: W
LayerCount: 2
Fore
SplineSet
501 553 m 257
 598 593 l 257
 667 421 707 259 707 111 c 256
 707 -187 490 -417 141 -544 c 257
 105 -445 l 257
 423 -328 602 -141 602 111 c 256
 602 240 566 389 501 553 c 257
EndSplineSet
EndChar

StartChar: uniE026
Encoding: 57382 57382 332
GlifName: uniE_026
Width: 2482
VWidth: 0
GlyphClass: 2
Flags: W
LayerCount: 2
Fore
SplineSet
2297 731 m 257
 2332 622 2357 497 2357 380 c 256
 2357 193 2283 0 2055 0 c 256
 1953 0 1813 39 1774 179 c 257
 1730 53 1651 0 1534 0 c 256
 1432 0 1359 29 1298 90 c 257
 1320 -265 1112 -500 718 -500 c 256
 327 -500 126 -290 126 78 c 256
 126 249 168 435 194 522 c 257
 292 493 l 257
 266 406 230 241 230 75 c 256
 230 -242 379 -392 719 -392 c 256
 1049 -392 1209 -245 1209 39 c 256
 1209 231 1163 359 1087 560 c 257
 1182 601 l 257
 1274 316 l 258
 1324 163 1374 105 1528 105 c 256
 1641 105 1707 172 1727 348 c 258
 1753 578 l 257
 1857 568 l 257
 1839 391 l 258
 1816 160 1930 105 2055 105 c 256
 2199 105 2252 210 2252 380 c 256
 2252 482 2229 598 2196 699 c 257
 2297 731 l 257
EndSplineSet
EndChar

StartChar: uniE027
Encoding: 57383 57383 333
GlifName: uniE_027
Width: 2380
VWidth: 0
GlyphClass: 2
Flags: W
LayerCount: 2
Fore
SplineSet
1707 0 m 256
 1570 0 1428 31 1312 90 c 257
 1312 -271 1112 -500 718 -500 c 256
 327 -500 126 -290 126 78 c 256
 126 249 168 435 194 522 c 257
 292 493 l 257
 266 406 230 241 230 75 c 256
 230 -242 379 -392 719 -392 c 256
 1049 -392 1209 -245 1209 39 c 256
 1209 231 1147 438 1105 560 c 257
 1201 597 l 257
 1249 469 1283 330 1303 200 c 257
 1474 542 1709 682 1909 682 c 256
 2098 682 2255 556 2255 359 c 256
 2255 100 1966 0 1707 0 c 256
1399 156 m 257
 1492 122 1602 105 1707 105 c 256
 1962 105 2150 203 2150 359 c 256
 2150 491 2053 577 1909 577 c 256
 1761 577 1560 474 1399 156 c 257
EndSplineSet
EndChar

StartChar: uniE028
Encoding: 57384 57384 334
GlifName: uniE_028
Width: 1554
VWidth: 0
GlyphClass: 2
Flags: W
LayerCount: 2
Fore
SplineSet
549 133 m 257
 549 105 l 257
 1233 112 1323 259 1323 430 c 256
 1323 550 1231 620 1108 620 c 256
 960 620 683 490 549 133 c 257
444 105 m 257
 444 1246 l 257
 549 1246 l 257
 549 344 l 257
 720 625 946 725 1108 725 c 256
 1271 725 1428 619 1428 430 c 256
 1428 161 1225 0 497 0 c 258
 105 0 l 257
 105 105 l 257
 444 105 l 257
EndSplineSet
EndChar

StartChar: uniE029
Encoding: 57385 57385 335
GlifName: uniE_029
Width: 1342
VWidth: 0
GlyphClass: 2
Flags: W
LayerCount: 2
Fore
SplineSet
961 963 m 257
 881 896 l 257
 827 960 740 1020 614 1020 c 256
 461 1020 308 894 308 701 c 256
 308 522 484 448 719 448 c 256
 810 448 905 462 990 476 c 257
 1012 365 l 257
 597 311 231 108 231 -245 c 256
 231 -524 500 -627 774 -627 c 256
 919 -627 1065 -598 1174 -551 c 257
 1216 -648 l 257
 1092 -702 932 -734 771 -734 c 256
 446 -734 126 -602 126 -247 c 256
 126 18 319 248 555 352 c 257
 383 384 203 481 203 688 c 256
 203 948 402 1125 614 1125 c 256
 776 1125 893 1044 961 963 c 257
EndSplineSet
EndChar

StartChar: uniE02A
Encoding: 57386 57386 336
GlifName: uniE_02A_
Width: 851
VWidth: 0
GlyphClass: 2
Flags: W
LayerCount: 2
Fore
SplineSet
0 105 m 258
 852 105 l 257
 852 0 l 257
 0 0 l 258
 -29 0 -53 24 -53 53 c 256
 -53 82 -29 105 0 105 c 258
EndSplineSet
EndChar

StartChar: uniE02B
Encoding: 57387 57387 337
GlifName: uniE_02B_
Width: 1561
VWidth: 0
GlyphClass: 2
Flags: W
LayerCount: 2
Fore
SplineSet
1268 1272 m 257
 1373 1272 l 257
 1373 517 l 258
 1373 342 1344 223 1275 143 c 256
 1182 35 1066 0 731 0 c 256
 456 0 126 14 126 362 c 256
 126 443 142 541 160 617 c 257
 263 591 l 257
 246 522 231 429 231 362 c 256
 231 128 431 105 746 105 c 256
 1053 105 1131 125 1199 203 c 256
 1253 265 1268 364 1268 517 c 258
 1268 1272 l 257
EndSplineSet
EndChar

StartChar: uniE02C
Encoding: 57388 57388 338
GlifName: uniE_02C_
Width: 1322
VWidth: 0
GlyphClass: 2
Flags: W
LayerCount: 2
Fore
SplineSet
1028 1246 m 257
 1133 1246 l 257
 1133 22 l 258
 1133 -346 949 -528 613 -528 c 256
 311 -528 126 -364 126 -78 c 256
 126 40 155 178 218 332 c 257
 314 288 l 257
 258 144 230 19 230 -84 c 256
 230 -302 366 -423 630 -423 c 256
 899 -423 1028 -289 1028 22 c 258
 1028 1246 l 257
EndSplineSet
EndChar

StartChar: uniE02D
Encoding: 57389 57389 339
GlifName: uniE_02D_
Width: 1240
VWidth: 0
GlyphClass: 2
Flags: W
LayerCount: 2
Fore
SplineSet
824 105 m 256
 934 105 1009 143 1009 291 c 256
 1009 450 918 573 790 573 c 256
 610 573 527 371 511 180 c 257
 591 148 726 105 824 105 c 256
824 0 m 256
 723 0 619 28 540 60 c 256
 492 79 463 89 413 89 c 256
 307 89 231 8 231 -130 c 258
 231 -824 l 257
 126 -824 l 257
 126 -130 l 258
 126 45 235 191 407 194 c 257
 425 385 515 678 790 678 c 256
 998 678 1114 483 1114 291 c 256
 1114 80 972 0 824 0 c 256
EndSplineSet
EndChar

StartChar: uniE02E
Encoding: 57390 57390 340
GlifName: uniE_02E_
Width: 868
VWidth: 0
GlyphClass: 2
Flags: W
LayerCount: 2
Fore
SplineSet
435 105 m 256
 570 105 638 178 638 295 c 256
 638 420 554 564 435 678 c 257
 317 565 231 420 231 295 c 256
 231 178 300 105 435 105 c 256
435 0 m 256
 249 0 126 122 126 295 c 256
 126 500 281 688 435 819 c 257
 590 687 743 500 743 295 c 256
 743 122 621 0 435 0 c 256
EndSplineSet
EndChar

StartChar: uniE02F
Encoding: 57391 57391 341
GlifName: uniE_02F_
Width: 944
VWidth: 0
GlyphClass: 2
Flags: W
LayerCount: 2
Fore
SplineSet
711 30 m 257
 643 10 571 -1 490 -1 c 256
 308 -1 148 79 148 292 c 256
 148 492 281 709 472 709 c 256
 777 709 818 264 818 77 c 256
 818 -234 585 -429 152 -540 c 257
 126 -439 l 257
 520 -338 690 -184 711 30 c 257
711 141 m 257
 699 358 628 604 472 604 c 256
 369 604 253 460 253 292 c 256
 253 152 334 104 490 104 c 256
 573 104 639 117 711 141 c 257
EndSplineSet
EndChar

StartChar: uniE030
Encoding: 57392 57392 342
GlifName: uniE_030
Width: 0
VWidth: 0
GlyphClass: 2
LayerCount: 2
Fore
SplineSet
-246 1961 m 256
 -246 1901 -228 1846 -196 1800 c 257
 -249 1764 l 257
 -287 1821 -309 1889 -309 1961 c 256
 -309 2156 -151 2314 44 2314 c 257
 44 2251 l 257
 -117 2251 -246 2121 -246 1961 c 256
EndSplineSet
EndChar

StartChar: uniE031
Encoding: 57393 57393 343
GlifName: uniE_031
Width: 0
VWidth: 0
GlyphClass: 2
LayerCount: 2
Fore
SplineSet
195 1833 m 257
 221 1776 l 257
 -195 1587 l 257
 -221 1644 l 257
 195 1833 l 257
EndSplineSet
EndChar

StartChar: uniE032
Encoding: 57394 57394 344
GlifName: uniE_032
Width: 0
VWidth: 0
GlyphClass: 2
LayerCount: 2
Fore
SplineSet
49 1786 m 257
 -26 1814 -105 1868 -105 1955 c 256
 -105 2046 -21 2115 57 2115 c 256
 152 2115 194 2026 194 1964 c 256
 194 1767 -22 1630 -181 1588 c 257
 -197 1649 l 257
 -112 1672 -15 1721 49 1786 c 257
91 1839 m 257
 116 1878 131 1920 131 1964 c 256
 131 2005 103 2052 57 2052 c 256
 13 2052 -42 2006 -42 1955 c 256
 -42 1909 10 1865 91 1839 c 257
EndSplineSet
EndChar

StartChar: uniE033
Encoding: 57395 57395 345
GlifName: uniE_033
Width: 0
VWidth: 0
GlyphClass: 2
LayerCount: 2
Fore
SplineSet
206 1762 m 256
 206 1812 195 1859 182 1905 c 257
 243 1920 l 257
 257 1871 269 1821 269 1762 c 256
 269 1670 201 1618 130 1618 c 256
 80 1618 30 1639 0 1693 c 257
 -32 1637 -80 1618 -130 1618 c 256
 -201 1618 -269 1670 -269 1762 c 256
 -269 1821 -257 1871 -244 1916 c 257
 -183 1902 l 257
 -195 1859 -206 1812 -206 1762 c 256
 -206 1693 -160 1681 -122 1681 c 256
 -82 1681 -32 1698 -32 1790 c 258
 -32 1863 l 257
 32 1863 l 257
 32 1790 l 258
 32 1698 81 1681 122 1681 c 256
 160 1681 206 1693 206 1762 c 256
EndSplineSet
EndChar

StartChar: uniE034
Encoding: 57396 57396 346
GlifName: uniE_034
Width: 0
VWidth: 0
GlyphClass: 2
LayerCount: 2
Fore
SplineSet
0 1941 m 256
 -72 1941 -130 1884 -130 1812 c 256
 -130 1740 -72 1681 0 1681 c 256
 71 1681 130 1741 130 1812 c 256
 130 1883 72 1941 0 1941 c 256
0 2004 m 256
 106 2004 193 1919 193 1812 c 256
 193 1705 107 1618 0 1618 c 256
 -108 1618 -193 1706 -193 1812 c 256
 -193 1918 -108 2004 0 2004 c 256
EndSplineSet
EndChar

StartChar: uniE035
Encoding: 57397 57397 347
GlifName: uniE_035
Width: 0
VWidth: 0
GlyphClass: 2
LayerCount: 2
Fore
SplineSet
-254 1624 m 257
 -230 1673 -172 1737 -91 1737 c 256
 -55 1737 -20 1722 17 1696 c 256
 49 1674 70 1667 90 1667 c 256
 134 1667 166 1695 193 1744 c 257
 250 1715 l 257
 221 1657 172 1604 90 1604 c 256
 53 1604 24 1616 -21 1646 c 256
 -50 1665 -72 1674 -91 1674 c 256
 -136 1674 -178 1635 -196 1597 c 257
 -254 1624 l 257
EndSplineSet
EndChar

StartChar: uniE036
Encoding: 57398 57398 348
GlifName: uniE_036
Width: 0
VWidth: 0
GlyphClass: 2
LayerCount: 2
Fore
SplineSet
-195 1587 m 257
 -221 1644 l 257
 -107 1696 l 257
 -154 1749 -180 1812 -180 1871 c 256
 -180 1970 -107 2055 23 2055 c 258
 109 2055 l 257
 109 1992 l 257
 23 1992 l 258
 -76 1992 -117 1936 -117 1871 c 256
 -117 1825 -93 1766 -46 1723 c 257
 195 1833 l 257
 221 1776 l 257
 -195 1587 l 257
EndSplineSet
EndChar

StartChar: uniE037
Encoding: 57399 57399 349
GlifName: uniE_037
Width: 0
VWidth: 0
GlyphClass: 2
LayerCount: 2
Fore
SplineSet
-242 1878 m 257
 -191 1916 l 257
 0 1681 l 257
 191 1916 l 257
 242 1878 l 257
 0 1576 l 257
 -242 1878 l 257
EndSplineSet
EndChar

StartChar: uniE038
Encoding: 57400 57400 350
GlifName: uniE_038
Width: 1741
VWidth: 0
GlyphClass: 2
Flags: W
LayerCount: 2
Fore
SplineSet
1567 704 m 257
 1596 608 1615 510 1615 418 c 256
 1615 80 1359 0 871 0 c 256
 383 0 126 80 126 418 c 256
 126 510 145 608 174 704 c 257
 275 672 l 257
 248 585 231 496 231 418 c 256
 231 185 368 105 871 105 c 256
 1374 105 1510 185 1510 418 c 256
 1510 496 1493 585 1466 672 c 257
 1567 704 l 257
EndSplineSet
EndChar

StartChar: uniE039
Encoding: 57401 57401 351
GlifName: uniE_039
Width: 1469
VWidth: 0
GlyphClass: 2
Flags: W
LayerCount: 2
Fore
SplineSet
1236 142 m 257
 1224 359 1153 605 997 605 c 256
 894 605 778 461 778 293 c 256
 778 153 860 105 1016 105 c 256
 1099 105 1164 118 1236 142 c 257
1239 34 m 257
 1171 14 1097 0 1016 0 c 256
 834 0 673 80 673 293 c 256
 673 493 806 710 997 710 c 256
 1299 710 1343 273 1343 78 c 256
 1343 -326 1086 -528 703 -528 c 256
 407 -528 126 -392 126 -32 c 256
 126 120 158 245 208 383 c 257
 305 350 l 257
 258 220 231 107 231 -32 c 256
 231 -310 434 -423 709 -423 c 256
 1044 -423 1226 -263 1239 34 c 257
EndSplineSet
EndChar

StartChar: uniE03A
Encoding: 57402 57402 352
GlifName: uniE_03A_
Width: 0
VWidth: 0
GlyphClass: 2
LayerCount: 2
Fore
SplineSet
-32 1952 m 257
 32 1952 l 257
 32 1628 l 257
 -32 1628 l 257
 -32 1952 l 257
EndSplineSet
EndChar

StartChar: uniE03B
Encoding: 57403 57403 353
GlifName: uniE_03B_
Width: 1714
VWidth: 0
GlyphClass: 2
Flags: W
LayerCount: 2
Fore
SplineSet
1481 506 m 257
 1469 723 1397 969 1241 969 c 256
 1138 969 1023 825 1023 657 c 256
 1023 517 1104 469 1260 469 c 256
 1343 469 1409 482 1481 506 c 257
1588 442 m 256
 1588 85 1368 0 834 0 c 256
 308 0 126 86 126 418 c 256
 126 510 145 608 174 704 c 257
 275 672 l 257
 248 585 231 496 231 418 c 256
 231 179 298 105 871 105 c 256
 1301 105 1480 153 1480 396 c 257
 1412 376 1341 364 1260 364 c 256
 1078 364 918 444 918 657 c 256
 918 857 1050 1074 1241 1074 c 256
 1546 1074 1588 629 1588 442 c 256
EndSplineSet
EndChar

StartChar: uniE03C
Encoding: 57404 57404 354
GlifName: uniE_03C_
Width: 1785
VWidth: 0
GlyphClass: 2
Flags: W
LayerCount: 2
Fore
SplineSet
174 704 m 257
 275 672 l 257
 248 585 231 496 231 418 c 256
 231 177 343 105 745 105 c 256
 1082 105 1290 150 1290 337 c 256
 1290 501 1072 716 821 896 c 257
 821 1044 l 257
 1055 1197 1376 1323 1636 1382 c 257
 1659 1279 l 257
 1431 1228 1139 1117 926 986 c 257
 926 950 l 257
 1173 775 1395 555 1395 337 c 256
 1395 30 1053 0 745 0 c 256
 345 0 126 87 126 418 c 256
 126 510 145 608 174 704 c 257
EndSplineSet
EndChar

StartChar: uniE03D
Encoding: 57405 57405 355
GlifName: uniE_03D_
Width: 1461
VWidth: 0
GlyphClass: 2
Flags: W
LayerCount: 2
Fore
SplineSet
1136 534 m 257
 1232 570 l 257
 1273 458 1336 253 1336 48 c 256
 1336 -299 1111 -500 718 -500 c 256
 327 -500 126 -290 126 78 c 256
 126 249 169 434 195 522 c 257
 292 492 l 257
 266 405 230 241 230 75 c 256
 230 -242 379 -392 719 -392 c 256
 1049 -392 1232 -245 1232 39 c 256
 1232 231 1179 418 1136 534 c 257
EndSplineSet
EndChar

StartChar: uniE03E
Encoding: 57406 57406 356
GlifName: uniE_03E_
Width: 1432
VWidth: 0
GlyphClass: 2
Flags: W
LayerCount: 2
Fore
SplineSet
1259 692 m 257
 1241 590 l 257
 1184 606 1119 614 1064 614 c 256
 820 614 674 443 674 280 c 256
 674 124 794 115 965 107 c 256
 1161 96 1307 48 1307 -161 c 256
 1307 -425 1031 -528 698 -528 c 256
 383 -528 126 -396 126 -6 c 256
 126 137 155 297 176 371 c 257
 279 342 l 257
 260 275 231 122 231 -9 c 256
 231 -313 404 -423 710 -423 c 256
 1010 -423 1201 -330 1201 -156 c 256
 1201 -35 1154 -10 965 1 c 256
 791 10 570 34 570 278 c 256
 570 513 760 719 1062 719 c 256
 1124 719 1197 711 1259 692 c 257
EndSplineSet
EndChar

StartChar: uniE03F
Encoding: 57407 57407 357
GlifName: uniE_03F_
Width: 1840
VWidth: 0
GlyphClass: 2
Flags: W
LayerCount: 2
Fore
SplineSet
1840 105 m 257
 1840 0 l 257
 1839 0 l 258
 1585 0 1452 101 1373 291 c 257
 1320 25 1030 0 755 0 c 256
 355 0 126 87 126 418 c 256
 126 510 145 608 174 704 c 257
 275 672 l 257
 248 585 231 496 231 418 c 256
 231 177 353 105 755 105 c 256
 1092 105 1290 150 1290 337 c 256
 1290 501 1072 716 821 896 c 257
 821 1044 l 257
 1055 1197 1376 1323 1636 1382 c 257
 1659 1279 l 257
 1431 1228 1139 1117 926 986 c 257
 926 950 l 257
 1224 744 1340 555 1429 380 c 256
 1520 201 1590 105 1839 105 c 258
 1840 105 l 257
EndSplineSet
EndChar

StartChar: uniE040
Encoding: 57408 57408 358
GlifName: uniE_040
Width: 1627
VWidth: 0
GlyphClass: 2
Flags: W
LayerCount: 2
Fore
SplineSet
194 522 m 257
 292 493 l 257
 266 406 230 241 230 75 c 256
 230 -242 379 -392 719 -392 c 256
 1049 -392 1232 -245 1232 39 c 256
 1232 231 1177 412 1135 534 c 257
 1232 570 l 257
 1308 309 l 258
 1348 169 1425 105 1627 105 c 258
 1628 105 l 257
 1628 0 l 257
 1627 0 l 258
 1500 0 1413 32 1335 82 c 257
 1361 -278 1112 -500 718 -500 c 256
 327 -500 126 -290 126 78 c 256
 126 249 168 435 194 522 c 257
EndSplineSet
EndChar

StartChar: uniE041
Encoding: 57409 57409 359
GlifName: uniE_041
Width: 561
VWidth: 0
GlyphClass: 2
Flags: W
LayerCount: 2
Fore
SplineSet
378 736 m 257
 410 640 436 513 436 401 c 256
 436 170 323 0 0 0 c 256
 -29 0 -53 24 -53 53 c 256
 -53 82 -29 105 0 105 c 256
 255 105 338 226 338 396 c 256
 338 497 308 615 280 701 c 257
 378 736 l 257
EndSplineSet
EndChar

StartChar: uniE042
Encoding: 57410 57410 360
GlifName: uniE_042
Width: 805
VWidth: 0
GlyphClass: 2
Flags: W
LayerCount: 2
Fore
SplineSet
0 105 m 256
 149 105 239 141 290 218 c 256
 335 286 351 386 351 517 c 258
 351 598 l 257
 456 598 l 257
 456 517 l 258
 456 395 468 300 507 233 c 256
 556 147 646 105 804 105 c 258
 806 105 l 257
 806 0 l 257
 804 0 l 257
 603 0 438 76 403 239 c 257
 368 77 202 0 0 0 c 256
 -29 0 -53 24 -53 53 c 256
 -53 82 -29 105 0 105 c 256
EndSplineSet
EndChar

StartChar: uniE043
Encoding: 57411 57411 361
GlifName: uniE_043
Width: 1321
VWidth: 0
GlyphClass: 2
Flags: W
LayerCount: 2
Fore
SplineSet
1321 105 m 257
 1321 0 l 257
 1128 0 l 257
 1199 -40 1248 -123 1248 -202 c 256
 1248 -446 958 -563 695 -563 c 256
 330 -563 126 -379 126 -27 c 256
 126 150 161 330 203 471 c 257
 304 441 l 257
 264 309 231 136 231 -27 c 256
 231 -335 384 -458 695 -458 c 256
 909 -458 1143 -372 1143 -202 c 256
 1143 -16 898 -1 690 -1 c 257
 690 105 l 257
 1321 105 l 257
EndSplineSet
EndChar

StartChar: uniE044
Encoding: 57412 57412 362
GlifName: uniE_044
Width: 583
VWidth: 0
GlyphClass: 2
Flags: W
LayerCount: 2
Fore
SplineSet
189 1246 m 257
 294 1246 l 257
 294 384 l 258
 294 287 309 220 348 176 c 256
 394 123 454 105 583 105 c 257
 584 105 l 257
 584 0 l 257
 583 0 l 257
 435 0 347 35 278 107 c 256
 218 170 189 261 189 384 c 258
 189 1246 l 257
EndSplineSet
EndChar

StartChar: uniE045
Encoding: 57413 57413 363
GlifName: uniE_045
Width: 1430
VWidth: 0
GlyphClass: 2
Flags: W
LayerCount: 2
Fore
SplineSet
1244 -550 m 257
 1281 -649 l 257
 1122 -709 968 -748 766 -748 c 256
 428 -748 126 -608 126 -264 c 256
 126 172 588 380 1113 525 c 257
 617 709 l 258
 575 723 537 728 505 728 c 256
 364 728 288 630 265 427 c 257
 160 440 l 257
 185 662 291 833 505 833 c 256
 551 833 599 827 650 808 c 258
 1258 584 l 257
 1258 456 l 257
 1172 433 1089 407 1009 382 c 257
 1099 239 1207 105 1429 105 c 258
 1430 105 l 257
 1430 0 l 257
 1429 0 l 258
 1160 0 1015 165 906 349 c 257
 506 208 231 25 231 -264 c 256
 231 -514 438 -643 766 -643 c 256
 955 -643 1094 -606 1244 -550 c 257
EndSplineSet
EndChar

StartChar: uniE046
Encoding: 57414 57414 364
GlifName: uniE_046
Width: 1341
VWidth: 0
GlyphClass: 2
Flags: W
LayerCount: 2
Fore
SplineSet
143 424 m 257
 175 617 253 832 468 832 c 256
 526 832 592 815 662 781 c 258
 1215 537 l 257
 1215 409 l 257
 821 132 485 0 0 0 c 256
 -28 0 -53 25 -53 53 c 256
 -53 81 -28 105 0 105 c 256
 446 105 762 217 1102 467 c 257
 615 687 l 258
 555 715 507 727 468 727 c 256
 345 727 278 602 246 407 c 257
 143 424 l 257
EndSplineSet
EndChar

StartChar: uniE047
Encoding: 57415 57415 365
GlifName: uniE_047
Width: 1382
VWidth: 0
GlyphClass: 2
Flags: W
LayerCount: 2
Fore
SplineSet
143 424 m 257
 175 617 253 832 468 832 c 256
 526 832 592 815 662 781 c 258
 1215 537 l 257
 1215 409 l 257
 1152 365 1090 323 1029 286 c 257
 1106 187 1197 105 1381 105 c 258
 1382 105 l 257
 1382 0 l 257
 1381 0 l 258
 1160 0 1031 105 936 232 c 257
 649 74 368 0 0 0 c 256
 -28 0 -53 25 -53 53 c 256
 -53 81 -28 105 0 105 c 256
 446 105 762 217 1102 467 c 257
 615 687 l 258
 555 715 507 727 468 727 c 256
 345 727 278 602 246 407 c 257
 143 424 l 257
EndSplineSet
EndChar

StartChar: uniE048
Encoding: 57416 57416 366
GlifName: uniE_048
Width: 1239
VWidth: 0
GlyphClass: 2
Flags: W
LayerCount: 2
Fore
SplineSet
1239 105 m 257
 1239 0 l 257
 1238 0 l 257
 1063 0 937 42 834 212 c 257
 774 67 614 0 451 0 c 256
 324 0 192 29 84 110 c 257
 144 196 l 257
 236 128 345 105 451 105 c 256
 625 105 765 191 765 313 c 256
 765 348 755 373 722 451 c 258
 550 853 l 257
 647 895 l 257
 856 404 l 258
 969 136 1046 105 1238 105 c 257
 1239 105 l 257
EndSplineSet
EndChar

StartChar: uniE049
Encoding: 57417 57417 367
GlifName: uniE_049
Width: 974
VWidth: 0
GlyphClass: 2
Flags: W
LayerCount: 2
Fore
SplineSet
502 553 m 257
 599 593 l 257
 693 273 l 258
 729 153 800 105 974 105 c 257
 975 105 l 257
 975 0 l 257
 974 0 l 257
 858 0 771 27 707 77 c 257
 694 -204 477 -421 142 -544 c 257
 105 -445 l 257
 423 -328 603 -141 603 111 c 256
 603 208 592 303 502 553 c 257
EndSplineSet
EndChar

StartChar: uniE04A
Encoding: 57418 57418 368
GlifName: uniE_04A_
Width: 2739
VWidth: 0
GlyphClass: 2
Flags: W
LayerCount: 2
Fore
SplineSet
2318 683 m 257
 2358 479 l 258
 2386 332 2409 229 2481 169 c 256
 2534 126 2611 105 2738 105 c 258
 2739 105 l 257
 2739 0 l 257
 2738 0 l 258
 2503 0 2382 82 2329 225 c 257
 2296 88 2201 0 2045 0 c 256
 1943 0 1815 48 1772 167 c 257
 1732 62 1654 0 1531 0 c 256
 1436 0 1359 29 1298 90 c 257
 1321 -265 1112 -500 718 -500 c 256
 327 -500 126 -290 126 78 c 256
 126 249 168 435 194 522 c 257
 292 493 l 257
 266 406 230 241 230 75 c 256
 230 -242 379 -392 719 -392 c 256
 1049 -392 1209 -245 1209 39 c 256
 1209 215 1168 347 1087 560 c 257
 1182 601 l 257
 1283 287 l 258
 1318 179 1373 105 1513 105 c 256
 1643 105 1710 171 1727 316 c 258
 1756 578 l 257
 1853 567 l 257
 1835 390 l 258
 1813 172 1920 105 2045 105 c 256
 2191 105 2251 211 2251 378 c 256
 2251 433 2247 488 2238 542 c 258
 2215 662 l 257
 2318 683 l 257
EndSplineSet
EndChar

StartChar: uniE04B
Encoding: 57419 57419 369
GlifName: uniE_04B_
Width: 1606
VWidth: 0
GlyphClass: 2
Flags: W
LayerCount: 2
Fore
SplineSet
1438 682 m 257
 1465 555 1481 471 1481 334 c 256
 1481 250 1464 181 1434 128 c 256
 1385 43 1298 0 1185 0 c 256
 1059 0 970 73 924 166 c 257
 878 73 790 0 664 0 c 256
 526 0 436 86 392 192 c 257
 326 68 202 0 0 0 c 256
 -29 0 -53 24 -53 53 c 256
 -53 82 -29 105 0 105 c 256
 143 105 231 129 284 195 c 256
 334 259 351 362 351 517 c 258
 351 598 l 257
 456 598 l 257
 456 431 l 258
 456 311 473 219 519 164 c 256
 552 126 598 105 664 105 c 256
 732 105 779 127 812 168 c 256
 856 224 872 314 872 431 c 258
 872 587 l 257
 977 587 l 257
 977 431 l 258
 977 309 995 216 1043 161 c 256
 1076 124 1121 105 1185 105 c 256
 1262 105 1314 128 1344 181 c 256
 1365 218 1376 268 1376 334 c 256
 1376 463 1361 544 1336 660 c 257
 1438 682 l 257
EndSplineSet
EndChar

StartChar: uniE04C
Encoding: 57420 57420 370
GlifName: uniE_04C_
Width: 1822
VWidth: 0
GlyphClass: 2
Flags: W
LayerCount: 2
Fore
SplineSet
1438 682 m 257
 1472 432 l 258
 1489 325 1515 243 1568 188 c 256
 1621 133 1699 105 1821 105 c 257
 1822 105 l 257
 1822 0 l 257
 1821 0 l 257
 1646 0 1521 56 1449 172 c 257
 1406 72 1315 0 1185 0 c 256
 1059 0 970 73 924 166 c 257
 878 73 790 0 664 0 c 256
 526 0 436 86 392 192 c 257
 326 68 202 0 0 0 c 256
 -29 0 -53 24 -53 53 c 256
 -53 82 -29 105 0 105 c 256
 143 105 230 129 283 194 c 256
 334 258 351 361 351 517 c 258
 351 598 l 257
 456 598 l 257
 456 431 l 258
 456 313 473 222 518 166 c 256
 551 126 598 105 664 105 c 256
 734 105 781 129 814 172 c 256
 857 230 872 321 872 431 c 258
 872 587 l 257
 977 587 l 257
 977 431 l 258
 977 315 994 221 1042 164 c 256
 1075 126 1120 105 1185 105 c 256
 1255 105 1304 125 1336 169 c 256
 1362 206 1376 260 1376 334 c 256
 1376 408 1363 502 1335 665 c 257
 1438 682 l 257
EndSplineSet
EndChar

StartChar: uniE04D
Encoding: 57421 57421 371
GlifName: uniE_04D_
Width: 2531
VWidth: 0
GlyphClass: 2
Flags: W
LayerCount: 2
Fore
SplineSet
1303 200 m 257
 1474 542 1709 682 1909 682 c 256
 2098 682 2255 556 2255 359 c 256
 2255 305 2243 260 2221 220 c 257
 2282 142 2377 105 2530 105 c 258
 2531 105 l 257
 2531 0 l 257
 2530 0 l 258
 2370 0 2242 41 2155 137 c 257
 2048 41 1872 0 1707 0 c 256
 1570 0 1428 31 1312 90 c 257
 1312 -271 1112 -500 718 -500 c 256
 327 -500 126 -290 126 78 c 256
 126 249 168 435 194 522 c 257
 292 493 l 257
 266 406 230 241 230 75 c 256
 230 -242 379 -392 719 -392 c 256
 1049 -392 1209 -245 1209 39 c 256
 1209 231 1147 438 1105 560 c 257
 1201 597 l 257
 1249 469 1283 329 1303 200 c 257
1399 156 m 257
 1492 122 1602 105 1707 105 c 256
 1962 105 2150 203 2150 359 c 256
 2150 491 2053 577 1909 577 c 256
 1761 577 1560 474 1399 156 c 257
EndSplineSet
EndChar

StartChar: uniE04E
Encoding: 57422 57422 372
GlifName: uniE_04E_
Width: 1661
VWidth: 0
GlyphClass: 2
Flags: W
LayerCount: 2
Fore
SplineSet
0 105 m 256
 128 105 213 134 268 183 c 256
 329 239 351 319 351 414 c 258
 351 598 l 257
 456 598 l 257
 456 414 l 258
 456 242 486 203 537 167 c 257
 737 570 1007 725 1215 725 c 256
 1378 725 1535 619 1535 430 c 256
 1535 154 1154 0 871 0 c 256
 641 0 467 34 390 182 c 257
 320 58 188 0 0 0 c 256
 -29 0 -53 24 -53 53 c 256
 -53 82 -29 105 0 105 c 256
633 127 m 257
 694 111 775 105 871 105 c 256
 1145 105 1430 263 1430 430 c 256
 1430 550 1338 620 1215 620 c 256
 1061 620 821 503 633 127 c 257
EndSplineSet
EndChar

StartChar: uniE04F
Encoding: 57423 57423 373
GlifName: uniE_04F_
Width: 1717
VWidth: 0
GlyphClass: 2
Flags: W
LayerCount: 2
Fore
SplineSet
633 127 m 257
 694 111 775 105 871 105 c 256
 1145 105 1430 263 1430 430 c 256
 1430 550 1338 620 1215 620 c 256
 1061 620 821 503 633 127 c 257
456 598 m 257
 456 414 l 258
 456 243 486 203 537 167 c 257
 737 570 1007 725 1215 725 c 256
 1378 725 1535 619 1535 430 c 256
 1535 343 1498 268 1437 206 c 257
 1487 137 1570 105 1716 105 c 257
 1717 105 l 257
 1717 0 l 257
 1716 0 l 257
 1552 0 1430 44 1356 140 c 257
 1219 49 1030 0 871 0 c 256
 642 0 466 33 389 181 c 257
 319 58 188 0 0 0 c 256
 -28 0 -53 25 -53 53 c 256
 -53 81 -28 105 0 105 c 256
 120 105 210 130 269 185 c 256
 323 235 351 310 351 414 c 258
 351 598 l 257
 456 598 l 257
EndSplineSet
EndChar

StartChar: uniE050
Encoding: 57424 57424 374
GlifName: uniE_050
Width: 1610
VWidth: 0
GlyphClass: 2
Flags: W
LayerCount: 2
Fore
SplineSet
549 105 m 257
 1233 112 1323 259 1323 430 c 256
 1323 550 1231 620 1108 620 c 256
 961 620 681 489 549 133 c 257
 549 105 l 257
444 105 m 257
 444 1246 l 257
 549 1246 l 257
 549 344 l 257
 720 617 934 725 1108 725 c 256
 1271 725 1428 619 1428 430 c 256
 1428 338 1404 257 1342 192 c 257
 1386 132 1483 105 1609 105 c 257
 1610 105 l 257
 1610 0 l 257
 1609 0 l 257
 1446 0 1339 39 1259 127 c 257
 1120 45 882 0 497 0 c 258
 105 0 l 257
 105 105 l 257
 444 105 l 257
EndSplineSet
EndChar

StartChar: uniE051
Encoding: 57425 57425 375
GlifName: uniE_051
Width: 1328
VWidth: 0
GlyphClass: 2
Flags: W
LayerCount: 2
Fore
SplineSet
323 105 m 257
 1007 112 1098 259 1098 430 c 256
 1098 550 1005 620 882 620 c 256
 732 620 449 483 323 133 c 257
 323 105 l 257
0 105 m 258
 218 105 l 257
 218 1246 l 257
 323 1246 l 257
 323 344 l 257
 495 624 720 725 882 725 c 256
 1045 725 1203 619 1203 430 c 256
 1203 161 999 0 271 0 c 258
 0 0 l 258
 -29 0 -53 24 -53 53 c 256
 -53 82 -29 105 0 105 c 258
EndSplineSet
EndChar

StartChar: uniE052
Encoding: 57426 57426 376
GlifName: uniE_052
Width: 1384
VWidth: 0
GlyphClass: 2
Flags: W
LayerCount: 2
Fore
SplineSet
323 105 m 257
 994 105 1098 259 1098 430 c 256
 1098 550 1005 620 882 620 c 256
 732 620 449 483 323 133 c 257
 323 105 l 257
0 105 m 258
 218 105 l 257
 218 1246 l 257
 323 1246 l 257
 323 344 l 257
 495 624 720 725 882 725 c 256
 1045 725 1203 619 1203 430 c 256
 1203 338 1178 257 1116 192 c 257
 1162 131 1257 105 1383 105 c 257
 1384 105 l 257
 1384 0 l 257
 1383 0 l 257
 1220 0 1112 39 1033 127 c 257
 894 45 656 0 271 0 c 258
 0 0 l 258
 -29 0 -53 24 -53 53 c 256
 -53 82 -29 105 0 105 c 258
EndSplineSet
EndChar

StartChar: uniE053
Encoding: 57427 57427 377
GlifName: uniE_053
Width: 1185
VWidth: 0
GlyphClass: 2
Flags: W
LayerCount: 2
Fore
SplineSet
1005 481 m 256
 1005 334 886 243 772 174 c 257
 890 131 1023 105 1185 105 c 258
 1186 105 l 257
 1186 0 l 257
 1185 0 l 258
 973 0 801 38 655 109 c 257
 400 1 231 -145 231 -347 c 256
 231 -578 486 -672 752 -672 c 256
 863 -672 975 -653 1073 -620 c 257
 1107 -719 l 257
 998 -756 874 -777 751 -777 c 256
 432 -777 126 -658 126 -351 c 256
 126 -100 307 66 551 177 c 257
 425 268 300 368 170 475 c 257
 175 601 l 257
 275 683 435 758 608 758 c 256
 806 758 1005 657 1005 481 c 256
900 480 m 256
 900 564 782 653 610 653 c 256
 483 653 351 596 279 548 c 257
 277 518 l 257
 408 408 525 315 659 226 c 257
 800 292 900 379 900 480 c 256
EndSplineSet
EndChar

StartChar: uniE054
Encoding: 57428 57428 378
GlifName: uniE_054
Width: 1085
VWidth: 0
GlyphClass: 2
Flags: W
LayerCount: 2
Fore
SplineSet
266 416 m 256
 266 264 402 183 586 183 c 256
 610 183 634 183 654 186 c 258
 941 241 l 257
 960 138 l 257
 469 44 l 258
 320 16 167 0 0 0 c 256
 -29 0 -53 24 -53 53 c 256
 -53 82 -29 105 0 105 c 256
 120 105 232 113 341 129 c 257
 237 180 161 274 161 415 c 256
 161 665 350 833 553 833 c 256
 707 833 818 760 884 681 c 257
 804 613 l 257
 755 673 672 728 553 728 c 256
 409 728 266 610 266 416 c 256
EndSplineSet
EndChar

StartChar: uniE055
Encoding: 57429 57429 379
GlifName: uniE_055
Width: 1077
VWidth: 0
GlyphClass: 2
Flags: W
LayerCount: 2
Fore
SplineSet
128 601 m 257
 241 693 392 758 569 758 c 256
 750 758 949 663 949 477 c 256
 949 337 837 239 725 174 c 257
 813 141 960 105 1077 105 c 257
 1078 105 l 257
 1078 0 l 257
 1077 0 l 257
 906 0 737 55 609 110 c 257
 442 50 218 0 0 0 c 256
 -29 0 -53 24 -53 53 c 256
 -53 82 -29 105 0 105 c 256
 166 105 369 142 503 177 c 257
 375 270 248 373 123 475 c 257
 128 601 l 257
232 548 m 257
 230 518 l 257
 349 416 474 316 612 225 c 257
 749 282 853 386 853 476 c 256
 853 579 713 653 573 653 c 256
 436 653 312 603 232 548 c 257
EndSplineSet
EndChar

StartChar: uniE056
Encoding: 57430 57430 380
GlifName: uniE_056
Width: 1722
VWidth: 0
GlyphClass: 2
Flags: W
LayerCount: 2
Fore
SplineSet
1268 1272 m 257
 1373 1272 l 257
 1373 517 l 258
 1373 367 1394 259 1455 192 c 256
 1509 133 1592 105 1721 105 c 258
 1722 105 l 257
 1722 0 l 257
 1721 0 l 258
 1569 0 1444 46 1372 139 c 256
 1350 167 1333 198 1321 235 c 257
 1306 195 1288 160 1265 132 c 256
 1179 28 1027 0 736 0 c 256
 456 0 126 14 126 362 c 256
 126 443 142 541 160 617 c 257
 263 591 l 257
 246 522 231 429 231 362 c 256
 231 128 431 105 746 105 c 256
 999 105 1132 125 1200 202 c 256
 1255 264 1268 363 1268 517 c 258
 1268 1272 l 257
EndSplineSet
EndChar

StartChar: uniE057
Encoding: 57431 57431 381
GlifName: uniE_057
Width: 1011
VWidth: 0
GlyphClass: 2
Flags: W
LayerCount: 2
Fore
SplineSet
0 105 m 258
 127 105 l 258
 423 105 516 172 516 320 c 256
 516 501 298 716 47 896 c 257
 47 1044 l 257
 281 1197 602 1323 862 1382 c 257
 885 1279 l 257
 657 1228 365 1117 152 986 c 257
 152 950 l 257
 399 775 621 555 621 322 c 256
 621 88 434 0 127 0 c 258
 0 0 l 258
 -29 0 -53 24 -53 53 c 256
 -53 82 -29 105 0 105 c 258
EndSplineSet
EndChar

StartChar: uniE058
Encoding: 57432 57432 382
GlifName: uniE_058
Width: 1071
VWidth: 0
GlyphClass: 2
Flags: W
LayerCount: 2
Fore
SplineSet
0 105 m 258
 127 105 l 258
 423 105 516 172 516 319 c 256
 516 501 298 717 47 896 c 257
 47 1044 l 257
 282 1197 602 1324 864 1383 c 257
 886 1279 l 257
 658 1227 365 1117 152 986 c 257
 152 950 l 257
 450 744 571 558 660 383 c 256
 750 204 821 105 1070 105 c 258
 1071 105 l 257
 1071 0 l 257
 1070 0 l 258
 817 0 687 97 604 289 c 257
 586 73 396 0 127 0 c 258
 0 0 l 258
 -29 0 -53 24 -53 53 c 256
 -53 82 -29 105 0 105 c 258
EndSplineSet
EndChar

StartChar: uniE059
Encoding: 57433 57433 383
GlifName: uniE_059
Width: 1481
VWidth: 0
GlyphClass: 2
Flags: W
LayerCount: 2
Fore
SplineSet
1482 105 m 257
 1482 0 l 257
 1481 0 l 257
 1326 0 1192 34 1133 152 c 257
 1133 22 l 258
 1133 -346 949 -528 613 -528 c 256
 311 -528 126 -364 126 -78 c 256
 126 40 155 178 218 332 c 257
 314 288 l 257
 258 144 230 19 230 -84 c 256
 230 -302 366 -423 630 -423 c 256
 899 -423 1028 -289 1028 22 c 258
 1028 1246 l 257
 1133 1246 l 257
 1133 517 l 258
 1133 366 1157 263 1206 201 c 256
 1254 140 1335 105 1481 105 c 257
 1482 105 l 257
EndSplineSet
EndChar

StartChar: uniE05A
Encoding: 57434 57434 384
GlifName: uniE_05A_
Width: 604
VWidth: 0
GlyphClass: 2
Flags: W
LayerCount: 2
Fore
SplineSet
416 405 m 258
 416 279 384 183 323 116 c 256
 254 39 145 0 0 0 c 256
 -28 0 -53 25 -53 53 c 256
 -53 81 -28 105 0 105 c 256
 124 105 204 128 252 183 c 256
 294 230 311 302 311 405 c 258
 311 1246 l 257
 416 1246 l 257
 416 405 l 258
EndSplineSet
EndChar

StartChar: uniE05B
Encoding: 57435 57435 385
GlifName: uniE_05B_
Width: 726
VWidth: 0
GlyphClass: 2
Flags: W
LayerCount: 2
Fore
SplineSet
0 105 m 256
 130 105 209 128 254 185 c 256
 297 238 311 318 311 435 c 258
 311 1246 l 257
 416 1246 l 257
 416 439 l 258
 416 322 430 242 471 188 c 256
 516 129 595 105 726 105 c 258
 727 105 l 257
 727 0 l 257
 726 0 l 257
 549 0 393 71 363 215 c 257
 333 71 179 0 0 0 c 256
 -29 0 -53 24 -53 53 c 256
 -53 82 -29 105 0 105 c 256
EndSplineSet
EndChar

StartChar: uniE05C
Encoding: 57436 57436 386
GlifName: uniE_05C_
Width: 1387
VWidth: 0
GlyphClass: 2
Flags: W
LayerCount: 2
Fore
SplineSet
511 180 m 257
 604 154 715 105 824 105 c 256
 934 105 1009 143 1009 291 c 256
 1009 450 918 573 790 573 c 256
 610 573 527 371 511 180 c 257
1387 0 m 257
 1386 0 l 257
 1260 0 1165 36 1080 134 c 257
 1029 39 927 0 824 0 c 256
 723 0 619 28 540 60 c 256
 492 79 463 89 413 89 c 256
 307 89 231 8 231 -130 c 258
 231 -824 l 257
 126 -824 l 257
 126 -130 l 258
 126 45 235 191 407 194 c 257
 425 385 515 678 790 678 c 256
 978 678 1091 519 1111 347 c 256
 1131 172 1224 105 1386 105 c 257
 1387 105 l 257
 1387 0 l 257
EndSplineSet
EndChar

StartChar: uniE05D
Encoding: 57437 57437 387
GlifName: uniE_05D_
Width: 1090
VWidth: 0
GlyphClass: 2
Flags: W
LayerCount: 2
Fore
SplineSet
0 105 m 256
 128 105 184 159 243 285 c 256
 259 319 273 357 289 400 c 256
 348 561 456 699 635 699 c 256
 841 699 964 489 964 312 c 256
 964 143 836 0 657 0 c 256
 496 0 398 90 311 189 c 257
 246 73 151 0 0 0 c 256
 -29 0 -53 24 -53 53 c 256
 -53 82 -29 105 0 105 c 256
361 295 m 257
 420 204 527 105 659 105 c 256
 769 105 859 193 859 312 c 256
 859 454 759 594 635 594 c 256
 522 594 441 508 388 363 c 257
 361 295 l 257
EndSplineSet
EndChar

StartChar: uniE05E
Encoding: 57438 57438 388
GlifName: uniE_05E_
Width: 1300
VWidth: 0
GlyphClass: 2
Flags: W
LayerCount: 2
Fore
SplineSet
0 105 m 256
 128 105 184 159 243 285 c 256
 259 319 273 357 289 400 c 256
 348 561 456 699 635 699 c 256
 825 699 944 522 962 355 c 256
 969 289 995 238 1024 201 c 256
 1072 140 1153 105 1299 105 c 258
 1300 105 l 257
 1300 0 l 257
 1299 0 l 258
 1126 0 1000 49 926 158 c 257
 877 65 772 0 660 0 c 256
 498 0 398 90 311 189 c 257
 246 73 151 0 0 0 c 256
 -29 0 -53 24 -53 53 c 256
 -53 82 -29 105 0 105 c 256
361 295 m 257
 420 204 528 105 660 105 c 256
 770 105 859 193 859 312 c 256
 859 454 759 594 635 594 c 256
 522 594 441 508 388 363 c 257
 361 295 l 257
EndSplineSet
EndChar

StartChar: uniE05F
Encoding: 57439 57439 389
GlifName: uniE_05F_
Width: 1082
VWidth: 0
GlyphClass: 2
Flags: W
LayerCount: 2
Fore
SplineSet
648 730 m 257
 389 692 231 577 231 443 c 256
 231 327 332 271 490 271 c 256
 549 271 620 279 676 298 c 257
 648 730 l 257
1083 0 m 257
 1082 0 l 257
 875 0 766 63 706 195 c 257
 642 173 560 166 490 166 c 256
 316 166 126 239 126 443 c 256
 126 674 387 797 642 835 c 257
 633 982 l 257
 738 988 l 257
 772 422 l 258
 785 209 841 105 1082 105 c 257
 1083 105 l 257
 1083 0 l 257
EndSplineSet
EndChar

StartChar: uniE060
Encoding: 57440 57440 390
GlifName: uniE_060
Width: 1349
VWidth: 0
GlyphClass: 2
Flags: W
LayerCount: 2
Fore
SplineSet
0 105 m 256
 133 105 256 118 359 144 c 257
 248 212 154 315 154 458 c 256
 154 604 263 736 377 783 c 257
 194 851 l 257
 238 959 l 257
 689 781 l 258
 927 686 1224 565 1224 299 c 256
 1224 135 1114 0 897 0 c 256
 801 0 629 28 497 78 c 257
 359 24 188 0 0 0 c 256
 -29 0 -53 24 -53 53 c 256
 -53 82 -29 105 0 105 c 256
496 192 m 257
 622 251 697 340 697 468 c 256
 697 603 651 715 524 715 c 256
 413 715 259 622 259 458 c 256
 259 339 362 251 496 192 c 257
627 146 m 257
 731 118 834 105 897 105 c 256
 1062 105 1119 188 1119 299 c 256
 1119 444 977 550 776 635 c 257
 850 428 773 248 627 146 c 257
EndSplineSet
EndChar

StartChar: uniE061
Encoding: 57441 57441 391
GlifName: uniE_061
Width: 1025
VWidth: 0
GlyphClass: 2
Flags: W
LayerCount: 2
Fore
SplineSet
281 125 m 257
 595 172 730 292 730 443 c 256
 730 594 664 648 561 648 c 256
 397 648 286 471 281 125 c 257
1025 0 m 257
 1024 0 l 257
 852 0 777 -47 777 -194 c 258
 777 -459 l 257
 668 -527 l 257
 414 -513 222 -279 183 7 c 257
 122 2 68 0 0 0 c 256
 -28 0 -53 25 -53 53 c 256
 -53 81 -28 105 0 105 c 256
 66 105 118 107 176 112 c 257
 178 467 294 753 561 753 c 256
 723 753 835 638 835 443 c 256
 835 208 618 66 287 19 c 257
 321 -223 493 -409 654 -421 c 257
 672 -411 l 257
 672 -194 l 258
 672 24 826 105 1024 105 c 257
 1025 105 l 257
 1025 0 l 257
EndSplineSet
EndChar

StartChar: uniE062
Encoding: 57442 57442 392
GlifName: uniE_062
Width: 944
VWidth: 0
GlyphClass: 2
Flags: W
LayerCount: 2
Fore
SplineSet
713 105 m 257
 708 322 639 605 472 605 c 256
 369 605 253 461 253 293 c 256
 253 153 334 105 490 105 c 257
 563 105 637 105 713 105 c 257
813 0 m 257
 776 -269 547 -439 152 -540 c 257
 126 -439 l 257
 501 -343 673 -197 707 0 c 257
 633 0 562 0 490 0 c 257
 308 0 148 80 148 293 c 256
 148 493 281 710 472 710 c 256
 764 710 814 298 818 105 c 257
 944 105 l 257
 944 0 l 257
 813 0 l 257
EndSplineSet
EndChar

StartChar: uniE063
Encoding: 57443 57443 393
GlifName: uniE_063
Width: 1074
VWidth: 0
GlyphClass: 2
Flags: W
LayerCount: 2
Fore
SplineSet
684 566 m 257
 575 422 419 268 297 177 c 257
 297 154 l 257
 359 126 463 105 549 105 c 256
 702 105 804 143 804 239 c 256
 804 306 753 448 684 566 c 257
686 738 m 257
 770 881 843 1037 843 1246 c 257
 948 1246 l 257
 948 996 848 813 744 651 c 257
 829 513 910 352 910 239 c 256
 910 36 694 0 549 0 c 256
 414 0 281 38 192 93 c 257
 192 230 l 257
 333 336 511 486 630 652 c 257
 509 835 297 1014 126 1134 c 257
 187 1220 l 257
 364 1097 561 919 686 738 c 257
EndSplineSet
EndChar

StartChar: uniE064
Encoding: 57444 57444 394
GlifName: uniE_064
Width: 1432
VWidth: 0
GlyphClass: 2
Flags: W
LayerCount: 2
Fore
SplineSet
493 357 m 257
 388 357 l 257
 388 690 329 931 200 1230 c 257
 296 1270 l 257
 431 956 493 703 493 357 c 257
1433 0 m 257
 1431 0 l 257
 1211 0 1066 92 1018 279 c 257
 905 55 595 0 105 0 c 257
 105 105 l 257
 787 105 977 205 977 516 c 258
 977 1246 l 257
 1082 1246 l 257
 1082 517 l 258
 1082 367 1106 263 1155 201 c 256
 1203 140 1285 105 1431 105 c 257
 1433 105 l 257
 1433 0 l 257
EndSplineSet
EndChar

StartChar: uniE065
Encoding: 57445 57445 395
GlifName: uniE_065
Width: 1854
VWidth: 0
GlyphClass: 2
Flags: W
LayerCount: 2
Fore
SplineSet
1623 585 m 257
 1600 502 1569 385 1569 299 c 256
 1569 188 1606 105 1854 105 c 257
 1855 105 l 257
 1855 0 l 257
 1854 0 l 257
 1605 0 1501 100 1481 249 c 257
 1361 67 1062 0 758 0 c 256
 328 0 126 161 126 436 c 256
 126 524 147 624 188 733 c 257
 285 693 l 257
 250 595 231 510 231 435 c 256
 231 218 390 105 779 105 c 256
 1308 105 1473 277 1521 610 c 257
 1623 585 l 257
EndSplineSet
EndChar

StartChar: uniE066
Encoding: 57446 57446 396
GlifName: uniE_066
Width: 922
VWidth: 0
GlyphClass: 2
Flags: W
LayerCount: 2
Fore
SplineSet
689 397 m 257
 621 377 549 364 468 364 c 256
 286 364 126 444 126 657 c 256
 126 857 259 1074 450 1074 c 256
 755 1074 796 629 796 442 c 256
 796 20 569 0 0 0 c 257
 -29 0 -53 24 -53 53 c 256
 -53 82 -29 105 0 105 c 257
 572 105 689 131 689 397 c 257
689 506 m 257
 677 723 606 969 450 969 c 256
 347 969 231 825 231 657 c 256
 231 517 312 469 468 469 c 256
 550 469 619 483 689 506 c 257
EndSplineSet
EndChar

StartChar: uniE067
Encoding: 57447 57447 397
GlifName: uniE_067
Width: 1855
VWidth: 0
GlyphClass: 2
Flags: W
LayerCount: 2
Fore
SplineSet
1374 71 m 257
 1222 17 1086 0 874 0 c 256
 459 0 126 44 126 394 c 256
 126 508 161 616 190 704 c 257
 289 670 l 257
 261 583 231 487 231 394 c 256
 231 162 432 105 874 105 c 256
 1029 105 1118 116 1236 142 c 257
 1125 219 1053 334 1053 487 c 256
 1053 702 1191 830 1379 830 c 256
 1564 830 1705 702 1705 487 c 256
 1705 332 1634 216 1516 140 c 257
 1618 117 1733 105 1855 105 c 257
 1856 105 l 257
 1856 0 l 257
 1855 0 l 257
 1680 0 1511 20 1374 71 c 257
1376 185 m 257
 1517 243 1600 335 1600 487 c 256
 1600 650 1509 725 1379 725 c 256
 1246 725 1158 650 1158 487 c 256
 1158 337 1244 244 1376 185 c 257
EndSplineSet
EndChar

StartChar: uniE068
Encoding: 57448 57448 398
GlifName: uniE_068
Width: 953
VWidth: 0
GlyphClass: 2
Flags: W
LayerCount: 2
Fore
SplineSet
0 105 m 256
 122 105 238 116 339 139 c 257
 225 216 151 332 151 487 c 256
 151 702 289 830 477 830 c 256
 662 830 802 702 802 487 c 256
 802 332 727 216 614 139 c 257
 715 116 831 105 953 105 c 257
 954 105 l 257
 954 0 l 257
 953 0 l 257
 780 0 612 21 477 70 c 257
 342 21 173 0 0 0 c 256
 -29 0 -53 24 -53 53 c 256
 -53 82 -29 105 0 105 c 256
477 183 m 257
 611 242 697 336 697 487 c 256
 697 650 607 725 477 725 c 256
 344 725 256 650 256 487 c 256
 256 336 342 242 477 183 c 257
EndSplineSet
EndChar

StartChar: uniE069
Encoding: 57449 57449 399
GlifName: uniE_069
Width: 1477
VWidth: 0
GlyphClass: 2
Flags: W
LayerCount: 2
Fore
SplineSet
1237 0 m 257
 1161 0 1090 0 1016 0 c 257
 834 0 673 80 673 293 c 256
 673 493 806 710 997 710 c 256
 1286 710 1339 311 1343 105 c 257
 1478 105 l 257
 1478 0 l 257
 1340 0 l 257
 1306 -353 1042 -528 710 -528 c 256
 385 -528 126 -381 126 -21 c 256
 126 109 158 245 208 383 c 257
 305 350 l 257
 258 220 231 96 231 -21 c 256
 231 -299 413 -423 710 -423 c 256
 1011 -423 1211 -276 1237 0 c 257
1236 105 m 257
 1234 337 1159 605 997 605 c 256
 894 605 778 461 778 293 c 256
 778 153 860 105 1016 105 c 257
 1089 105 1161 105 1236 105 c 257
EndSplineSet
EndChar

StartChar: uniFD3E
Encoding: 64830 64830 428
GlifName: uniF_D_3E_
Width: 754
VWidth: 0
GlyphClass: 2
Flags: W
LayerCount: 2
Fore
SplineSet
210 715 m 256
 210 646 267 589 336 589 c 256
 405 589 462 646 462 715 c 256
 462 784 405 841 336 841 c 256
 267 841 210 784 210 715 c 256
628 -140 m 257
 539 -200 l 257
 407 7 322 238 294 509 c 257
 198 529 126 614 126 715 c 256
 126 816 198 901 294 921 c 257
 322 1192 407 1423 539 1630 c 257
 628 1570 l 257
 503 1376 425 1166 399 916 c 257
 484 889 546 808 546 715 c 256
 546 622 484 542 399 515 c 257
 425 265 503 54 628 -140 c 257
EndSplineSet
EndChar

StartChar: uniFD3F
Encoding: 64831 64831 429
GlifName: uniF_D_3F_
Width: 754
VWidth: 0
GlyphClass: 2
Flags: W
LayerCount: 2
Fore
SplineSet
544 715 m 256
 544 784 487 841 418 841 c 256
 349 841 292 784 292 715 c 256
 292 646 349 589 418 589 c 256
 487 589 544 646 544 715 c 256
126 1570 m 257
 215 1630 l 257
 347 1423 432 1192 460 921 c 257
 556 901 628 816 628 715 c 256
 628 614 556 529 460 509 c 257
 432 238 347 7 215 -200 c 257
 126 -140 l 257
 251 54 329 265 355 515 c 257
 270 542 208 622 208 715 c 256
 208 808 270 889 355 916 c 257
 329 1166 251 1376 126 1570 c 257
EndSplineSet
EndChar

StartChar: v
Encoding: 118 118 527
GlifName: v
Width: 914
VWidth: 0
GlyphClass: 2
Flags: W
LayerCount: 2
Fore
SplineSet
772 901 m 257
 883 901 l 257
 530 1 l 257
 384 1 l 257
 32 901 l 257
 143 901 l 257
 458 75 l 257
 772 901 l 257
EndSplineSet
EndChar

StartChar: w
Encoding: 119 119 528
GlifName: w
Width: 1456
VWidth: 0
GlyphClass: 2
Flags: W
LayerCount: 2
Fore
SplineSet
1274 901 m 257
 1383 901 l 257
 1119 0 l 257
 967 0 l 257
 729 811 l 257
 490 1 l 257
 339 1 l 257
 74 901 l 257
 183 901 l 257
 413 87 l 257
 652 901 l 257
 804 901 l 257
 1045 87 l 257
 1274 901 l 257
EndSplineSet
EndChar

StartChar: x
Encoding: 120 120 529
GlifName: x
Width: 946
VWidth: 0
GlyphClass: 2
Flags: W
LayerCount: 2
Fore
SplineSet
767 901 m 257
 894 901 l 257
 536 451 l 257
 894 0 l 257
 766 0 l 257
 473 372 l 257
 181 0 l 257
 53 0 l 257
 409 451 l 257
 53 901 l 257
 180 901 l 257
 473 528 l 257
 767 901 l 257
EndSplineSet
EndChar

StartChar: y
Encoding: 121 121 530
GlifName: y
Width: 932
VWidth: 0
GlyphClass: 2
Flags: W
LayerCount: 2
Fore
SplineSet
792 901 m 257
 901 901 l 257
 545 28 l 258
 449 -201 349 -399 64 -399 c 258
 32 -399 l 257
 32 -311 l 257
 64 -311 l 258
 255 -311 336 -213 422 0 c 257
 407 0 l 257
 32 901 l 257
 142 901 l 257
 471 119 l 257
 792 901 l 257
EndSplineSet
EndChar

StartChar: z
Encoding: 122 122 534
GlifName: z
Width: 840
VWidth: 0
GlyphClass: 2
Flags: W
LayerCount: 2
Fore
SplineSet
84 813 m 257
 84 901 l 257
 798 901 l 257
 798 793 l 257
 186 90 l 257
 798 90 l 257
 798 0 l 257
 84 0 l 257
 84 110 l 257
 695 813 l 257
 84 813 l 257
EndSplineSet
EndChar

StartChar: zero
Encoding: 48 48 535
GlifName: zero
Width: 1049
VWidth: 0
GlyphClass: 2
Flags: W
LayerCount: 2
Fore
SplineSet
524 1267 m 256
 849 1267 944 967 944 623 c 256
 944 279 850 -21 525 -21 c 256
 200 -21 105 279 105 623 c 256
 105 967 199 1267 524 1267 c 256
524 1176 m 256
 267 1176 210 912 210 623 c 256
 210 334 268 69 525 69 c 256
 782 69 839 334 839 623 c 256
 839 912 781 1176 524 1176 c 256
EndSplineSet
EndChar

